  0
SECTION
  2
HEADER
  9
$ACADVER
  1
AC1009
  0
ENDSEC
  0
SECTION
  2
BLOCKS
  0
ENDSEC
  0
SECTION
  2
ENTITIES
  0
LINE
  8
CutLine
  6
CONTINUOUS
 62
8
 10
650.879186
 20
2422.413357
 11
660.918147
 21
2414.380947
  0
LINE
  8
CutLine
  6
CONTINUOUS
 62
8
 10
589.447541
 20
2354.252367
 11
588.347487
 21
2375.437029
  0
LINE
  8
CutLine
  6
CONTINUOUS
 62
8
 10
588.347487
 20
2375.437029
 11
629.694524
 21
2421.313303
  0
LINE
  8
CutLine
  6
CONTINUOUS
 62
8
 10
629.694524
 20
2421.313303
 11
650.879186
 21
2422.413357
  0
LINE
  8
CutLine
  6
CONTINUOUS
 62
8
 10
610.617971
 20
2290.832747
 11
591.640193
 21
2300.311353
  0
LINE
  8
CutLine
  6
CONTINUOUS
 62
8
 10
591.640193
 20
2300.311353
 11
579.968936
 21
2335.274590
  0
LINE
  8
CutLine
  6
CONTINUOUS
 62
8
 10
579.968936
 20
2335.274590
 11
589.447541
 21
2354.252367
  0
LINE
  8
CutLine
  6
CONTINUOUS
 62
8
 10
661.608392
 20
2422.554640
 11
672.639667
 21
2440.673993
  0
LINE
  8
CutLine
  6
CONTINUOUS
 62
8
 10
672.639667
 20
2440.673993
 11
862.941754
 21
2486.946615
  0
LINE
  8
CutLine
  6
CONTINUOUS
 62
8
 10
862.941754
 20
2486.946615
 11
895.912482
 21
2479.526503
  0
LINE
  8
CutLine
  6
CONTINUOUS
 62
8
 10
572.927706
 20
2259.863951
 11
574.994520
 21
2280.976229
  0
LINE
  8
CutLine
  6
CONTINUOUS
 62
8
 10
574.994520
 20
2280.976229
 11
589.505693
 21
2292.899561
  0
LINE
  8
CutLine
  6
CONTINUOUS
 62
8
 10
589.505693
 20
2292.899561
 11
610.617971
 21
2290.832747
  0
LINE
  8
CutLine
  6
CONTINUOUS
 62
8
 10
587.904615
 20
2237.608496
 11
567.971639
 21
2240.361626
  0
LINE
  8
CutLine
  6
CONTINUOUS
 62
8
 10
567.971639
 20
2240.361626
 11
572.927706
 21
2259.863951
  0
LINE
  8
CutLine
  6
CONTINUOUS
 62
8
 10
867.414156
 20
2206.229756
 11
885.879200
 21
2195.787430
  0
LINE
  8
CutLine
  6
CONTINUOUS
 62
8
 10
885.879200
 20
2195.787430
 11
895.784049
 21
2160.098384
  0
LINE
  8
CutLine
  6
CONTINUOUS
 62
8
 10
895.784049
 20
2160.098384
 11
885.341723
 21
2141.633341
  0
LINE
  8
CutLine
  6
CONTINUOUS
 62
8
 10
885.341723
 20
2141.633341
 11
880.122568
 21
2121.072202
  0
LINE
  8
CutLine
  6
CONTINUOUS
 62
8
 10
880.122568
 20
2121.072202
 11
857.743652
 21
2107.754395
  0
LINE
  8
CutLine
  6
CONTINUOUS
 62
8
 10
857.743652
 20
2107.754395
 11
836.572730
 21
2112.610665
  0
LINE
  8
CutLine
  6
CONTINUOUS
 62
8
 10
893.224625
 20
2470.302280
 11
910.745213
 21
2471.315338
  0
LINE
  8
CutLine
  6
CONTINUOUS
 62
8
 10
1079.069993
 20
2298.590958
 11
1074.818106
 21
2272.582006
  0
LINE
  8
CutLine
  6
CONTINUOUS
 62
8
 10
1074.818106
 20
2272.582006
 11
995.728581
 21
2190.615923
  0
LINE
  8
CutLine
  6
CONTINUOUS
 62
8
 10
995.728581
 20
2190.615923
 11
974.518760
 21
2190.237102
  0
LINE
  8
CutLine
  6
CONTINUOUS
 62
8
 10
954.715773
 20
2528.428426
 11
975.324233
 21
2523.399369
  0
LINE
  8
CutLine
  6
CONTINUOUS
 62
8
 10
975.324233
 20
2523.399369
 11
1039.377137
 21
2417.993697
  0
LINE
  8
CutLine
  6
CONTINUOUS
 62
8
 10
1039.377137
 20
2417.993697
 11
1034.348080
 21
2397.385238
  0
LINE
  8
CutLine
  6
CONTINUOUS
 62
8
 10
1034.348080
 20
2397.385238
 11
1054.199056
 21
2389.906017
  0
LINE
  8
CutLine
  6
CONTINUOUS
 62
8
 10
1054.199056
 20
2389.906017
 11
1086.549213
 21
2318.441934
  0
LINE
  8
CutLine
  6
CONTINUOUS
 62
8
 10
1086.549213
 20
2318.441934
 11
1079.069993
 21
2298.590958
  0
LINE
  8
CutLine
  6
CONTINUOUS
 62
8
 10
753.164275
 20
1953.090227
 11
742.694710
 21
1971.539840
  0
LINE
  8
CutLine
  6
CONTINUOUS
 62
8
 10
742.694710
 20
1971.539840
 11
756.181519
 21
2020.415159
  0
LINE
  8
CutLine
  6
CONTINUOUS
 62
8
 10
756.181519
 20
2020.415159
 11
780.027524
 21
2050.440897
  0
LINE
  8
CutLine
  6
CONTINUOUS
 62
8
 10
441.074714
 20
2031.062768
 11
437.572341
 21
2010.140689
  0
LINE
  8
CutLine
  6
CONTINUOUS
 62
8
 10
437.572341
 20
2010.140689
 11
420.350117
 21
1997.857667
  0
LINE
  8
CutLine
  6
CONTINUOUS
 62
8
 10
420.350117
 20
1997.857667
 11
399.428038
 21
2001.360040
  0
LINE
  8
CutLine
  6
CONTINUOUS
 62
8
 10
493.927042
 20
2117.191373
 11
498.866521
 21
2096.561260
  0
LINE
  8
CutLine
  6
CONTINUOUS
 62
8
 10
498.866521
 20
2096.561260
 11
472.751569
 21
2054.004112
  0
LINE
  8
CutLine
  6
CONTINUOUS
 62
8
 10
472.751569
 20
2054.004112
 11
441.074714
 21
2031.062768
  0
LINE
  8
CutLine
  6
CONTINUOUS
 62
8
 10
434.963850
 20
2162.402412
 11
443.620614
 21
2195.800217
  0
LINE
  8
CutLine
  6
CONTINUOUS
 62
8
 10
443.620614
 20
2195.800217
 11
513.179894
 21
2277.816990
  0
LINE
  8
CutLine
  6
CONTINUOUS
 62
8
 10
513.179894
 20
2277.816990
 11
534.321815
 21
2279.554568
  0
LINE
  8
CutLine
  6
CONTINUOUS
 62
8
 10
328.558460
 20
2087.178277
 11
332.147729
 21
2108.085624
  0
LINE
  8
CutLine
  6
CONTINUOUS
 62
8
 10
332.147729
 20
2108.085624
 11
414.056503
 21
2165.991682
  0
LINE
  8
CutLine
  6
CONTINUOUS
 62
8
 10
414.056503
 20
2165.991682
 11
434.963850
 21
2162.402412
  0
LINE
  8
CutLine
  6
CONTINUOUS
 62
8
 10
565.033011
 20
2188.535021
 11
555.348675
 21
2157.569628
  0
LINE
  8
CutLine
  6
CONTINUOUS
 62
8
 10
555.348675
 20
2157.569628
 11
515.140216
 21
2117.226767
  0
LINE
  8
CutLine
  6
CONTINUOUS
 62
8
 10
515.140216
 20
2117.226767
 11
493.927042
 21
2117.191373
  0
LINE
  8
CutLine
  6
CONTINUOUS
 62
8
 10
830.808615
 20
2085.253484
 11
847.696095
 21
2096.882031
  0
LINE
  8
CutLine
  6
CONTINUOUS
 62
8
 10
847.696095
 20
2096.882031
 11
858.107204
 21
2079.217975
  0
LINE
  8
CutLine
  6
CONTINUOUS
 62
8
 10
768.906963
 20
1807.068361
 11
759.439648
 21
1788.084949
  0
LINE
  8
CutLine
  6
CONTINUOUS
 62
8
 10
759.439648
 20
1788.084949
 11
741.942138
 21
1782.232444
  0
LINE
  8
CutLine
  6
CONTINUOUS
 62
8
 10
741.942138
 20
1782.232444
 11
722.958725
 21
1791.699759
  0
LINE
  8
CutLine
  6
CONTINUOUS
 62
8
 10
821.960731
 20
1915.963436
 11
828.875692
 21
1895.908928
  0
LINE
  8
CutLine
  6
CONTINUOUS
 62
8
 10
828.875692
 20
1895.908928
 11
788.961471
 21
1813.983323
  0
LINE
  8
CutLine
  6
CONTINUOUS
 62
8
 10
788.961471
 20
1813.983323
 11
768.906963
 21
1807.068361
  0
LINE
  8
CutLine
  6
CONTINUOUS
 62
8
 10
887.499038
 20
2030.670570
 11
893.081761
 21
2010.205155
  0
LINE
  8
CutLine
  6
CONTINUOUS
 62
8
 10
893.081761
 20
2010.205155
 11
849.577155
 21
1934.062074
  0
LINE
  8
CutLine
  6
CONTINUOUS
 62
8
 10
849.577155
 20
1934.062074
 11
821.960731
 21
1915.963436
  0
LINE
  8
CutLine
  6
CONTINUOUS
 62
8
 10
204.568156
 20
1397.436269
 11
182.396111
 21
1397.864290
  0
LINE
  8
CutLine
  6
CONTINUOUS
 62
8
 10
182.396111
 20
1397.864290
 11
152.923562
 21
1425.998392
  0
LINE
  8
CutLine
  6
CONTINUOUS
 62
8
 10
152.923562
 20
1425.998392
 11
152.430822
 21
1447.205872
  0
LINE
  8
CutLine
  6
CONTINUOUS
 62
8
 10
337.225457
 20
1871.465354
 11
348.203586
 21
1889.616957
  0
LINE
  8
CutLine
  6
CONTINUOUS
 62
8
 10
348.203586
 20
1889.616957
 11
375.658911
 21
1896.378093
  0
LINE
  8
CutLine
  6
CONTINUOUS
 62
8
 10
375.658911
 20
1896.378093
 11
393.810514
 21
1885.399964
  0
LINE
  8
CutLine
  6
CONTINUOUS
 62
8
 10
323.316341
 20
1823.250692
 11
313.061767
 21
1841.820659
  0
LINE
  8
CutLine
  6
CONTINUOUS
 62
8
 10
313.061767
 20
1841.820659
 11
318.655489
 21
1861.210780
  0
LINE
  8
CutLine
  6
CONTINUOUS
 62
8
 10
318.655489
 20
1861.210780
 11
337.225457
 21
1871.465354
  0
LINE
  8
CutLine
  6
CONTINUOUS
 62
8
 10
686.241994
 20
1812.127422
 11
691.595770
 21
1791.600925
  0
LINE
  8
CutLine
  6
CONTINUOUS
 62
8
 10
691.595770
 20
1791.600925
 11
685.518208
 21
1781.234361
  0
LINE
  8
CutLine
  6
CONTINUOUS
 62
8
 10
685.518208
 20
1781.234361
 11
664.991710
 21
1775.880585
  0
LINE
  8
CutLine
  6
CONTINUOUS
 62
8
 10
393.810514
 20
1885.399964
 11
389.261820
 21
1906.119747
  0
LINE
  8
CutLine
  6
CONTINUOUS
 62
8
 10
389.261820
 20
1906.119747
 11
403.757838
 21
1928.770804
  0
LINE
  8
CutLine
  6
CONTINUOUS
 62
8
 10
403.757838
 20
1928.770804
 11
424.477621
 21
1933.319497
  0
LINE
  8
CutLine
  6
CONTINUOUS
 62
8
 10
315.016142
 20
1817.316707
 11
327.408155
 21
1816.340046
  0
LINE
  8
CutLine
  6
CONTINUOUS
 62
8
 10
303.641571
 20
1806.567297
 11
315.016142
 21
1817.316707
  0
LINE
  8
CutLine
  6
CONTINUOUS
 62
8
 10
72.221724
 20
1676.211021
 11
61.915971
 21
1679.245674
  0
LINE
  8
CutLine
  6
CONTINUOUS
 62
8
 10
452.593303
 20
1976.053629
 11
472.261682
 21
1984.000632
  0
LINE
  8
CutLine
  6
CONTINUOUS
 62
8
 10
472.261682
 20
1984.000632
 11
660.260799
 21
1904.204217
  0
LINE
  8
CutLine
  6
CONTINUOUS
 62
8
 10
660.260799
 20
1904.204217
 11
687.773343
 21
1876.231224
  0
LINE
  8
CutLine
  6
CONTINUOUS
 62
8
 10
687.773343
 20
1876.231224
 11
699.076923
 21
1912.665412
  0
LINE
  8
CutLine
  6
CONTINUOUS
 62
8
 10
699.076923
 20
1912.665412
 11
732.019674
 21
1951.385567
  0
LINE
  8
CutLine
  6
CONTINUOUS
 62
8
 10
732.019674
 20
1951.385567
 11
753.164275
 21
1953.090227
  0
LINE
  8
CutLine
  6
CONTINUOUS
 62
8
 10
396.192341
 20
1536.438004
 11
409.115873
 21
1519.615926
  0
LINE
  8
CutLine
  6
CONTINUOUS
 62
8
 10
409.115873
 20
1519.615926
 11
406.325270
 21
1498.323840
  0
LINE
  8
CutLine
  6
CONTINUOUS
 62
8
 10
406.325270
 20
1498.323840
 11
388.989581
 21
1481.481500
  0
LINE
  8
CutLine
  6
CONTINUOUS
 62
8
 10
654.241017
 20
1582.853886
 11
633.884342
 21
1588.820943
  0
LINE
  8
CutLine
  6
CONTINUOUS
 62
8
 10
633.884342
 20
1588.820943
 11
585.620514
 21
1677.112663
  0
LINE
  8
CutLine
  6
CONTINUOUS
 62
8
 10
585.620514
 20
1677.112663
 11
591.587571
 21
1697.469338
  0
LINE
  8
CutLine
  6
CONTINUOUS
 62
8
 10
1186.316474
 20
2109.505469
 11
1169.243999
 21
2122.096362
  0
LINE
  8
CutLine
  6
CONTINUOUS
 62
8
 10
1169.243999
 20
2122.096362
 11
1149.832874
 21
2250.577627
  0
LINE
  8
CutLine
  6
CONTINUOUS
 62
8
 10
1149.832874
 20
2250.577627
 11
1162.374680
 21
2267.975004
  0
LINE
  8
CutLine
  6
CONTINUOUS
 62
8
 10
1448.571157
 20
2783.491767
 11
1427.615968
 21
2786.790259
  0
LINE
  8
CutLine
  6
CONTINUOUS
 62
8
 10
1427.615968
 20
2786.790259
 11
1407.497679
 21
2814.425243
  0
LINE
  8
CutLine
  6
CONTINUOUS
 62
8
 10
1506.608305
 20
3221.854341
 11
1492.815787
 21
3233.066231
  0
LINE
  8
CutLine
  6
CONTINUOUS
 62
8
 10
1488.113701
 20
3254.942508
 11
1480.037039
 21
3333.199488
  0
LINE
  8
CutLine
  6
CONTINUOUS
 62
8
 10
1480.037039
 20
3333.199488
 11
1493.417860
 21
3349.660157
  0
LINE
  8
CutLine
  6
CONTINUOUS
 62
8
 10
1599.214711
 20
3248.336162
 11
1588.916899
 21
3229.790137
  0
LINE
  8
CutLine
  6
CONTINUOUS
 62
8
 10
1588.916899
 20
3229.790137
 11
1525.154330
 21
3211.556529
  0
LINE
  8
CutLine
  6
CONTINUOUS
 62
8
 10
1525.154330
 20
3211.556529
 11
1506.608305
 21
3221.854341
  0
LINE
  8
CutLine
  6
CONTINUOUS
 62
8
 10
1493.417860
 20
3349.660157
 11
1501.481870
 21
3359.849679
  0
LINE
  8
CutLine
  6
CONTINUOUS
 62
8
 10
1693.921360
 20
3256.646239
 11
1680.289917
 21
3240.392508
  0
LINE
  8
CutLine
  6
CONTINUOUS
 62
8
 10
1680.289917
 20
3240.392508
 11
1615.468442
 21
3234.704719
  0
LINE
  8
CutLine
  6
CONTINUOUS
 62
8
 10
1615.468442
 20
3234.704719
 11
1599.214711
 21
3248.336162
  0
LINE
  8
CutLine
  6
CONTINUOUS
 62
8
 10
1131.368509
 20
2992.244071
 11
1126.537128
 21
2992.458703
  0
LINE
  8
CutLine
  6
CONTINUOUS
 62
8
 10
1103.190346
 20
2997.462664
 11
1034.646266
 21
3059.298524
  0
LINE
  8
CutLine
  6
CONTINUOUS
 62
8
 10
1034.646266
 20
3059.298524
 11
1033.556261
 21
3080.483705
  0
LINE
  8
CutLine
  6
CONTINUOUS
 62
8
 10
1409.370439
 20
3034.715905
 11
1400.667807
 21
3011.592774
  0
LINE
  8
CutLine
  6
CONTINUOUS
 62
8
 10
1400.667807
 20
3011.592774
 11
1317.033642
 21
2959.345176
  0
LINE
  8
CutLine
  6
CONTINUOUS
 62
8
 10
1306.155536
 20
2958.784411
 11
1292.772936
 21
2961.875583
  0
LINE
  8
CutLine
  6
CONTINUOUS
 62
8
 10
1301.510293
 20
3046.672528
 11
1318.071643
 21
3059.928534
  0
LINE
  8
CutLine
  6
CONTINUOUS
 62
8
 10
1318.071643
 20
3059.928534
 11
1396.114433
 21
3051.277255
  0
LINE
  8
CutLine
  6
CONTINUOUS
 62
8
 10
1396.114433
 20
3051.277255
 11
1409.370439
 21
3034.715905
  0
LINE
  8
CutLine
  6
CONTINUOUS
 62
8
 10
1483.554440
 20
3158.833352
 11
1484.602865
 21
3137.646073
  0
LINE
  8
CutLine
  6
CONTINUOUS
 62
8
 10
1484.602865
 20
3137.646073
 11
1460.587717
 21
3111.130475
  0
LINE
  8
CutLine
  6
CONTINUOUS
 62
8
 10
1460.587717
 20
3111.130475
 11
1439.400437
 21
3110.082050
  0
LINE
  8
CutLine
  6
CONTINUOUS
 62
8
 10
1358.750120
 20
3175.218040
 11
1363.650103
 21
3195.857570
  0
LINE
  8
CutLine
  6
CONTINUOUS
 62
8
 10
1363.650103
 20
3195.857570
 11
1468.335823
 21
3260.373511
  0
LINE
  8
CutLine
  6
CONTINUOUS
 62
8
 10
1468.335823
 20
3260.373511
 11
1487.586719
 21
3260.048578
  0
LINE
  8
CutLine
  6
CONTINUOUS
 62
8
 10
1439.400437
 20
3110.082050
 11
1424.438996
 21
3095.043590
  0
LINE
  8
CutLine
  6
CONTINUOUS
 62
8
 10
1424.438996
 20
3095.043590
 11
1366.561521
 21
3094.895002
  0
LINE
  8
CutLine
  6
CONTINUOUS
 62
8
 10
1366.561521
 20
3094.895002
 11
1349.118309
 21
3109.850270
  0
LINE
  8
CutLine
  6
CONTINUOUS
 62
8
 10
1146.646739
 20
3374.049158
 11
1167.033435
 21
3381.628706
  0
LINE
  8
CutLine
  6
CONTINUOUS
 62
8
 10
1167.033435
 20
3381.628706
 11
1207.499102
 21
3364.278422
  0
LINE
  8
CutLine
  6
CONTINUOUS
 62
8
 10
1207.499102
 20
3364.278422
 11
1215.374258
 21
3344.581165
  0
LINE
  8
CutLine
  6
CONTINUOUS
 62
8
 10
1064.552560
 20
3432.020696
 11
1081.356688
 21
3444.967560
  0
LINE
  8
CutLine
  6
CONTINUOUS
 62
8
 10
1081.356688
 20
3444.967560
 11
1116.211627
 21
3440.448560
  0
LINE
  8
CutLine
  6
CONTINUOUS
 62
8
 10
1116.211627
 20
3440.448560
 11
1129.158490
 21
3423.644431
  0
LINE
  8
CutLine
  6
CONTINUOUS
 62
8
 10
1025.692035
 20
3369.969911
 11
1020.940908
 21
3390.644213
  0
LINE
  8
CutLine
  6
CONTINUOUS
 62
8
 10
1020.940908
 20
3390.644213
 11
1043.878257
 21
3427.269569
  0
LINE
  8
CutLine
  6
CONTINUOUS
 62
8
 10
1043.878257
 20
3427.269569
 11
1064.552560
 21
3432.020696
  0
LINE
  8
CutLine
  6
CONTINUOUS
 62
8
 10
1249.014733
 20
3347.968442
 11
1235.549157
 21
3364.359851
  0
LINE
  8
CutLine
  6
CONTINUOUS
 62
8
 10
1235.549157
 20
3364.359851
 11
1237.521822
 21
3384.490117
  0
LINE
  8
CutLine
  6
CONTINUOUS
 62
8
 10
1237.521822
 20
3384.490117
 11
1253.913231
 21
3397.955692
  0
LINE
  8
CutLine
  6
CONTINUOUS
 62
8
 10
1253.913231
 20
3397.955692
 11
1256.893333
 21
3418.958525
  0
LINE
  8
CutLine
  6
CONTINUOUS
 62
8
 10
1256.893333
 20
3418.958525
 11
1349.252980
 21
3488.365088
  0
LINE
  8
CutLine
  6
CONTINUOUS
 62
8
 10
1349.252980
 20
3488.365088
 11
1370.255813
 21
3485.384986
  0
LINE
  8
CutLine
  6
CONTINUOUS
 62
8
 10
1293.541676
 20
2950.778844
 11
1303.537342
 21
2959.389173
  0
LINE
  8
CutLine
  6
CONTINUOUS
 62
8
 10
1126.851623
 20
2992.444732
 11
1130.750389
 21
2987.813206
  0
LINE
  8
CutLine
  6
CONTINUOUS
 62
8
 10
1265.161486
 20
2588.317286
 11
1243.949571
 21
2588.551049
  0
LINE
  8
CutLine
  6
CONTINUOUS
 62
8
 10
1243.949571
 20
2588.551049
 11
1187.950630
 21
2645.798002
  0
LINE
  8
CutLine
  6
CONTINUOUS
 62
8
 10
1187.950630
 20
2645.798002
 11
1188.184393
 21
2667.009917
  0
LINE
  8
CutLine
  6
CONTINUOUS
 62
8
 10
1259.492682
 20
2686.574808
 11
1275.331744
 21
2672.463673
  0
LINE
  8
CutLine
  6
CONTINUOUS
 62
8
 10
1275.331744
 20
2672.463673
 11
1278.870693
 21
2611.122981
  0
LINE
  8
CutLine
  6
CONTINUOUS
 62
8
 10
1278.870693
 20
2611.122981
 11
1265.161486
 21
2588.317286
  0
LINE
  8
CutLine
  6
CONTINUOUS
 62
8
 10
1185.425457
 20
2793.668889
 11
1260.867875
 21
2707.743389
  0
LINE
  8
CutLine
  6
CONTINUOUS
 62
8
 10
1260.867875
 20
2707.743389
 11
1259.492682
 21
2686.574808
  0
LINE
  8
CutLine
  6
CONTINUOUS
 62
8
 10
1195.296721
 20
2638.288193
 11
1186.475329
 21
2608.606597
  0
LINE
  8
CutLine
  6
CONTINUOUS
 62
8
 10
1186.475329
 20
2608.606597
 11
1167.823626
 21
2598.501451
  0
LINE
  8
CutLine
  6
CONTINUOUS
 62
8
 10
797.212166
 20
2516.366714
 11
776.107522
 21
2514.223346
  0
LINE
  8
CutLine
  6
CONTINUOUS
 62
8
 10
776.107522
 20
2514.223346
 11
753.085456
 21
2533.000338
  0
LINE
  8
CutLine
  6
CONTINUOUS
 62
8
 10
753.085456
 20
2533.000338
 11
750.942088
 21
2554.104982
  0
LINE
  8
CutLine
  6
CONTINUOUS
 62
8
 10
844.333642
 20
2539.872516
 11
837.606663
 21
2519.754172
  0
LINE
  8
CutLine
  6
CONTINUOUS
 62
8
 10
837.606663
 20
2519.754172
 11
817.330509
 21
2509.639734
  0
LINE
  8
CutLine
  6
CONTINUOUS
 62
8
 10
817.330509
 20
2509.639734
 11
797.212166
 21
2516.366714
  0
LINE
  8
CutLine
  6
CONTINUOUS
 62
8
 10
1167.823626
 20
2598.501451
 11
1189.027153
 21
2597.860789
  0
LINE
  8
CutLine
  6
CONTINUOUS
 62
8
 10
1189.027153
 20
2597.860789
 11
1241.994559
 21
2541.592847
  0
LINE
  8
CutLine
  6
CONTINUOUS
 62
8
 10
1241.994559
 20
2541.592847
 11
1242.850514
 21
2518.799444
  0
LINE
  8
CutLine
  6
CONTINUOUS
 62
8
 10
756.137538
 20
2629.091344
 11
768.915516
 21
2652.268470
  0
LINE
  8
CutLine
  6
CONTINUOUS
 62
8
 10
768.915516
 20
2652.268470
 11
861.168139
 21
2698.478211
  0
LINE
  8
CutLine
  6
CONTINUOUS
 62
8
 10
861.168139
 20
2698.478211
 11
881.297597
 21
2691.784564
  0
LINE
  8
CutLine
  6
CONTINUOUS
 62
8
 10
1500.544531
 20
2601.587309
 11
1507.068355
 21
2581.402173
  0
LINE
  8
CutLine
  6
CONTINUOUS
 62
8
 10
1507.068355
 20
2581.402173
 11
1484.706059
 21
2537.682091
  0
LINE
  8
CutLine
  6
CONTINUOUS
 62
8
 10
1484.706059
 20
2537.682091
 11
1464.520923
 21
2531.158267
  0
LINE
  8
CutLine
  6
CONTINUOUS
 62
8
 10
1407.271185
 20
2603.245309
 11
1474.495922
 21
2612.973886
  0
LINE
  8
CutLine
  6
CONTINUOUS
 62
8
 10
1474.495922
 20
2612.973886
 11
1500.544531
 21
2601.587309
  0
LINE
  8
CutLine
  6
CONTINUOUS
 62
8
 10
1252.950056
 20
2513.842358
 11
1249.789272
 21
2530.693003
  0
LINE
  8
CutLine
  6
CONTINUOUS
 62
8
 10
1268.466284
 20
2337.761503
 11
1248.306194
 21
2331.160688
  0
LINE
  8
CutLine
  6
CONTINUOUS
 62
8
 10
1248.306194
 20
2331.160688
 11
1186.355532
 21
2362.549987
  0
LINE
  8
CutLine
  6
CONTINUOUS
 62
8
 10
1186.355532
 20
2362.549987
 11
1179.754717
 21
2382.710077
  0
LINE
  8
CutLine
  6
CONTINUOUS
 62
8
 10
1317.799073
 20
2294.680569
 11
1274.707267
 21
2317.487132
  0
LINE
  8
CutLine
  6
CONTINUOUS
 62
8
 10
1274.707267
 20
2317.487132
 11
1268.466284
 21
2337.761503
  0
LINE
  8
CutLine
  6
CONTINUOUS
 62
8
 10
1396.878334
 20
2390.616071
 11
1405.600000
 21
2371.278736
  0
LINE
  8
CutLine
  6
CONTINUOUS
 62
8
 10
1405.600000
 20
2371.278736
 11
1396.741191
 21
2347.863409
  0
LINE
  8
CutLine
  6
CONTINUOUS
 62
8
 10
1396.741191
 20
2347.863409
 11
1360.836723
 21
2295.352014
  0
LINE
  8
CutLine
  6
CONTINUOUS
 62
8
 10
819.619004
 20
2767.283183
 11
823.860254
 21
2791.944998
  0
LINE
  8
CutLine
  6
CONTINUOUS
 62
8
 10
823.860254
 20
2791.944998
 11
909.903100
 21
2873.348631
  0
LINE
  8
CutLine
  6
CONTINUOUS
 62
8
 10
909.903100
 20
2873.348631
 11
931.108167
 21
2872.761131
  0
LINE
  8
CutLine
  6
CONTINUOUS
 62
8
 10
857.827173
 20
2696.804707
 11
817.492627
 21
2746.176821
  0
LINE
  8
CutLine
  6
CONTINUOUS
 62
8
 10
817.492627
 20
2746.176821
 11
819.619004
 21
2767.283183
  0
LINE
  8
CutLine
  6
CONTINUOUS
 62
8
 10
1437.666011
 20
2723.166946
 11
1452.423009
 21
2707.201610
  0
LINE
  8
CutLine
  6
CONTINUOUS
 62
8
 10
1452.423009
 20
2707.201610
 11
1451.410890
 21
2641.183874
  0
LINE
  8
CutLine
  6
CONTINUOUS
 62
8
 10
1451.410890
 20
2641.183874
 11
1436.182715
 21
2626.415575
  0
LINE
  8
CutLine
  6
CONTINUOUS
 62
8
 10
1486.941491
 20
3516.614392
 11
1497.457712
 21
3509.097083
  0
LINE
  8
CutLine
  6
CONTINUOUS
 62
8
 10
1438.825191
 20
3586.128336
 11
1459.737556
 21
3582.568419
  0
LINE
  8
CutLine
  6
CONTINUOUS
 62
8
 10
1459.737556
 20
3582.568419
 11
1488.811195
 21
3541.565659
  0
LINE
  8
CutLine
  6
CONTINUOUS
 62
8
 10
1488.811195
 20
3541.565659
 11
1485.251279
 21
3520.653294
  0
LINE
  8
CutLine
  6
CONTINUOUS
 62
8
 10
1386.909930
 20
3671.811364
 11
1407.511826
 21
3666.755487
  0
LINE
  8
CutLine
  6
CONTINUOUS
 62
8
 10
1407.511826
 20
3666.755487
 11
1443.881068
 21
3606.730232
  0
LINE
  8
CutLine
  6
CONTINUOUS
 62
8
 10
1443.881068
 20
3606.730232
 11
1438.825191
 21
3586.128336
  0
LINE
  8
CutLine
  6
CONTINUOUS
 62
8
 10
1302.391780
 20
3629.065880
 11
1309.007472
 21
3649.221093
  0
LINE
  8
CutLine
  6
CONTINUOUS
 62
8
 10
1309.007472
 20
3649.221093
 11
1365.858643
 21
3677.973862
  0
LINE
  8
CutLine
  6
CONTINUOUS
 62
8
 10
1365.858643
 20
3677.973862
 11
1386.909930
 21
3671.811364
  0
LINE
  8
CutLine
  6
CONTINUOUS
 62
8
 10
1382.626140
 20
3475.026502
 11
1357.586844
 21
3516.701046
  0
LINE
  8
CutLine
  6
CONTINUOUS
 62
8
 10
1357.586844
 20
3516.701046
 11
1362.719252
 21
3537.284010
  0
LINE
  8
CutLine
  6
CONTINUOUS
 62
8
 10
559.433717
 20
2561.225814
 11
570.304982
 21
2570.522777
  0
LINE
  8
CutLine
  6
CONTINUOUS
 62
8
 10
747.222426
 20
2640.548336
 11
756.137538
 21
2629.091344
  0
LINE
  8
CutLine
  6
CONTINUOUS
 62
8
 10
566.574611
 20
2798.215268
 11
552.301399
 21
2813.908433
  0
LINE
  8
CutLine
  6
CONTINUOUS
 62
8
 10
552.301399
 20
2813.908433
 11
556.490893
 21
2902.322560
  0
LINE
  8
CutLine
  6
CONTINUOUS
 62
8
 10
556.490893
 20
2902.322560
 11
572.184058
 21
2916.595771
  0
LINE
  8
CutLine
  6
CONTINUOUS
 62
8
 10
565.704445
 20
2644.874241
 11
550.789806
 21
2659.959119
  0
LINE
  8
CutLine
  6
CONTINUOUS
 62
8
 10
550.789806
 20
2659.959119
 11
551.489733
 21
2783.300629
  0
LINE
  8
CutLine
  6
CONTINUOUS
 62
8
 10
551.489733
 20
2783.300629
 11
566.574611
 21
2798.215268
  0
LINE
  8
CutLine
  6
CONTINUOUS
 62
8
 10
577.199781
 20
2964.382940
 11
595.706850
 21
2974.750601
  0
LINE
  8
CutLine
  6
CONTINUOUS
 62
8
 10
595.706850
 20
2974.750601
 11
658.673149
 21
2957.001227
  0
LINE
  8
CutLine
  6
CONTINUOUS
 62
8
 10
658.673149
 20
2957.001227
 11
669.040810
 21
2938.494158
  0
LINE
  8
CutLine
  6
CONTINUOUS
 62
8
 10
572.184058
 20
2916.595771
 11
558.831798
 21
2933.079617
  0
LINE
  8
CutLine
  6
CONTINUOUS
 62
8
 10
558.831798
 20
2933.079617
 11
560.715935
 21
2951.030680
  0
LINE
  8
CutLine
  6
CONTINUOUS
 62
8
 10
560.715935
 20
2951.030680
 11
577.199781
 21
2964.382940
  0
LINE
  8
CutLine
  6
CONTINUOUS
 62
8
 10
1451.842589
 20
957.727267
 11
1443.871287
 21
981.503243
  0
LINE
  8
CutLine
  6
CONTINUOUS
 62
8
 10
1443.871287
 20
981.503243
 11
1447.394141
 21
992.215519
  0
LINE
  8
CutLine
  6
CONTINUOUS
 62
8
 10
1447.394141
 20
992.215519
 11
1466.329420
 21
1001.778740
  0
LINE
  8
CutLine
  6
CONTINUOUS
 62
8
 10
1538.635407
 20
966.228419
 11
1525.169063
 21
949.837641
  0
LINE
  8
CutLine
  6
CONTINUOUS
 62
8
 10
1525.169063
 20
949.837641
 11
1468.233367
 21
944.260924
  0
LINE
  8
CutLine
  6
CONTINUOUS
 62
8
 10
1468.233367
 20
944.260924
 11
1451.842589
 21
957.727267
  0
LINE
  8
CutLine
  6
CONTINUOUS
 62
8
 10
1565.542636
 20
1022.161892
 11
1572.557315
 21
1002.142045
  0
LINE
  8
CutLine
  6
CONTINUOUS
 62
8
 10
1572.557315
 20
1002.142045
 11
1558.655254
 21
973.243098
  0
LINE
  8
CutLine
  6
CONTINUOUS
 62
8
 10
1558.655254
 20
973.243098
 11
1538.635407
 21
966.228419
  0
LINE
  8
CutLine
  6
CONTINUOUS
 62
8
 10
1582.855278
 20
1237.812862
 11
1594.966948
 21
1217.411095
  0
LINE
  8
CutLine
  6
CONTINUOUS
 62
8
 10
1594.966948
 20
1217.411095
 11
1583.643037
 21
1141.804001
  0
LINE
  8
CutLine
  6
CONTINUOUS
 62
8
 10
1583.643037
 20
1141.804001
 11
1566.586682
 21
1129.191278
  0
LINE
  8
CutLine
  6
CONTINUOUS
 62
8
 10
1466.329420
 20
1132.400929
 11
1449.500966
 21
1145.316157
  0
LINE
  8
CutLine
  6
CONTINUOUS
 62
8
 10
1449.500966
 20
1145.316157
 11
1436.982518
 21
1240.466487
  0
LINE
  8
CutLine
  6
CONTINUOUS
 62
8
 10
1436.982518
 20
1240.466487
 11
1449.008741
 21
1264.052104
  0
LINE
  8
CutLine
  6
CONTINUOUS
 62
8
 10
1445.000000
 20
938.238486
 11
1458.785017
 21
952.023504
  0
LINE
  8
CutLine
  6
CONTINUOUS
 62
8
 10
1527.963131
 20
953.238486
 11
1571.060824
 21
953.238486
  0
LINE
  8
CutLine
  6
CONTINUOUS
 62
8
 10
1571.060824
 20
953.238486
 11
1586.060824
 21
938.238486
  0
LINE
  8
CutLine
  6
CONTINUOUS
 62
8
 10
1586.060824
 20
938.238486
 11
1599.416584
 21
921.757477
  0
LINE
  8
CutLine
  6
CONTINUOUS
 62
8
 10
1599.416584
 20
921.757477
 11
1592.568571
 21
856.379463
  0
LINE
  8
CutLine
  6
CONTINUOUS
 62
8
 10
1592.568571
 20
856.379463
 11
1576.087562
 21
843.023703
  0
LINE
  8
CutLine
  6
CONTINUOUS
 62
8
 10
1591.337101
 20
745.459893
 11
1576.123388
 21
730.676696
  0
LINE
  8
CutLine
  6
CONTINUOUS
 62
8
 10
1576.123388
 20
730.676696
 11
1472.046791
 21
732.170406
  0
LINE
  8
CutLine
  6
CONTINUOUS
 62
8
 10
1472.046791
 20
732.170406
 11
1457.263593
 21
747.384119
  0
LINE
  8
CutLine
  6
CONTINUOUS
 62
8
 10
1576.087562
 20
843.023703
 11
1593.224045
 21
830.520066
  0
LINE
  8
CutLine
  6
CONTINUOUS
 62
8
 10
1593.224045
 20
830.520066
 11
1603.840738
 21
762.596377
  0
LINE
  8
CutLine
  6
CONTINUOUS
 62
8
 10
1603.840738
 20
762.596377
 11
1591.337101
 21
745.459893
  0
LINE
  8
CutLine
  6
CONTINUOUS
 62
8
 10
1733.137728
 20
3585.156196
 11
1751.716904
 21
3574.918314
  0
LINE
  8
CutLine
  6
CONTINUOUS
 62
8
 10
1751.716904
 20
3574.918314
 11
1757.499067
 21
3554.942408
  0
LINE
  8
CutLine
  6
CONTINUOUS
 62
8
 10
1757.499067
 20
3554.942408
 11
1747.261185
 21
3536.363232
  0
LINE
  8
CutLine
  6
CONTINUOUS
 62
8
 10
1747.261185
 20
3536.363232
 11
1736.746927
 21
3517.939054
  0
LINE
  8
CutLine
  6
CONTINUOUS
 62
8
 10
1736.746927
 20
3517.939054
 11
1725.419010
 21
3514.842725
  0
LINE
  8
CutLine
  6
CONTINUOUS
 62
8
 10
1725.419010
 20
3514.842725
 11
1697.709164
 21
3522.818875
  0
LINE
  8
CutLine
  6
CONTINUOUS
 62
8
 10
1768.576531
 20
3664.030590
 11
1776.111318
 21
3644.200639
  0
LINE
  8
CutLine
  6
CONTINUOUS
 62
8
 10
1776.111318
 20
3644.200639
 11
1752.967679
 21
3592.690983
  0
LINE
  8
CutLine
  6
CONTINUOUS
 62
8
 10
1752.967679
 20
3592.690983
 11
1733.137728
 21
3585.156196
  0
LINE
  8
CutLine
  6
CONTINUOUS
 62
8
 10
1697.709164
 20
3638.651861
 11
1706.773704
 21
3657.830862
  0
LINE
  8
CutLine
  6
CONTINUOUS
 62
8
 10
1706.773704
 20
3657.830862
 11
1749.397529
 21
3673.095131
  0
LINE
  8
CutLine
  6
CONTINUOUS
 62
8
 10
1749.397529
 20
3673.095131
 11
1768.576531
 21
3664.030590
  0
LINE
  8
CutLine
  6
CONTINUOUS
 62
8
 10
1697.709164
 20
3522.818875
 11
1682.709164
 21
3537.818875
  0
LINE
  8
CutLine
  6
CONTINUOUS
 62
8
 10
1682.709164
 20
3537.818875
 11
1682.709164
 21
3623.651861
  0
LINE
  8
CutLine
  6
CONTINUOUS
 62
8
 10
1682.709164
 20
3623.651861
 11
1697.709164
 21
3638.651861
  0
LINE
  8
CutLine
  6
CONTINUOUS
 62
8
 10
1144.822201
 20
848.259734
 11
1129.822201
 21
922.139622
  0
LINE
  8
CutLine
  6
CONTINUOUS
 62
8
 10
1129.822201
 20
922.139622
 11
1129.822201
 21
1088.783955
  0
LINE
  8
CutLine
  6
CONTINUOUS
 62
8
 10
1129.822201
 20
1088.783955
 11
1144.822201
 21
1103.783955
  0
LINE
  8
CutLine
  6
CONTINUOUS
 62
8
 10
1284.217163
 20
1017.553068
 11
1272.537835
 21
999.844502
  0
LINE
  8
CutLine
  6
CONTINUOUS
 62
8
 10
1272.537835
 20
999.844502
 11
1253.678078
 21
995.975222
  0
LINE
  8
CutLine
  6
CONTINUOUS
 62
8
 10
1253.678078
 20
995.975222
 11
1235.969512
 21
1007.654550
  0
LINE
  8
CutLine
  6
CONTINUOUS
 62
8
 10
1233.583839
 20
1107.822261
 11
1254.004484
 21
1102.077935
  0
LINE
  8
CutLine
  6
CONTINUOUS
 62
8
 10
1254.004484
 20
1102.077935
 11
1289.961489
 21
1037.973712
  0
LINE
  8
CutLine
  6
CONTINUOUS
 62
8
 10
1289.961489
 20
1037.973712
 11
1284.217163
 21
1017.553068
  0
LINE
  8
CutLine
  6
CONTINUOUS
 62
8
 10
1174.251972
 20
1195.452941
 11
1195.082507
 21
1191.441855
  0
LINE
  8
CutLine
  6
CONTINUOUS
 62
8
 10
1195.082507
 20
1191.441855
 11
1237.594925
 21
1128.652796
  0
LINE
  8
CutLine
  6
CONTINUOUS
 62
8
 10
1237.594925
 20
1128.652796
 11
1233.583839
 21
1107.822261
  0
LINE
  8
CutLine
  6
CONTINUOUS
 62
8
 10
1094.879192
 20
1222.722689
 11
1092.891449
 21
1243.842559
  0
LINE
  8
CutLine
  6
CONTINUOUS
 62
8
 10
1092.891449
 20
1243.842559
 11
1107.978331
 21
1262.064361
  0
LINE
  8
CutLine
  6
CONTINUOUS
 62
8
 10
1107.978331
 20
1262.064361
 11
1129.098200
 21
1264.052104
  0
LINE
  8
CutLine
  6
CONTINUOUS
 62
8
 10
1129.098200
 20
1264.052104
 11
1149.874695
 21
1259.769902
  0
LINE
  8
CutLine
  6
CONTINUOUS
 62
8
 10
1149.874695
 20
1259.769902
 11
1178.314475
 21
1216.563210
  0
LINE
  8
CutLine
  6
CONTINUOUS
 62
8
 10
1178.314475
 20
1216.563210
 11
1174.251972
 21
1195.452941
  0
LINE
  8
CutLine
  6
CONTINUOUS
 62
8
 10
1163.767168
 20
757.435589
 11
1161.842422
 21
736.309886
  0
LINE
  8
CutLine
  6
CONTINUOUS
 62
8
 10
1161.842422
 20
736.309886
 11
1129.928035
 21
709.725296
  0
LINE
  8
CutLine
  6
CONTINUOUS
 62
8
 10
1129.928035
 20
709.725296
 11
1106.642267
 21
709.850715
  0
LINE
  8
CutLine
  6
CONTINUOUS
 62
8
 10
1060.376090
 20
735.724008
 11
1013.832539
 21
727.983196
  0
LINE
  8
CutLine
  6
CONTINUOUS
 62
8
 10
1013.832539
 20
727.983196
 11
984.564062
 21
738.321494
  0
LINE
  8
CutLine
  6
CONTINUOUS
 62
8
 10
1200.500794
 20
868.123058
 11
1220.466019
 21
875.291725
  0
LINE
  8
CutLine
  6
CONTINUOUS
 62
8
 10
1220.466019
 20
875.291725
 11
1237.096564
 21
867.448630
  0
LINE
  8
CutLine
  6
CONTINUOUS
 62
8
 10
1237.096564
 20
867.448630
 11
1244.265231
 21
847.483405
  0
LINE
  8
CutLine
  6
CONTINUOUS
 62
8
 10
1244.265231
 20
847.483405
 11
1240.157456
 21
820.381609
  0
LINE
  8
CutLine
  6
CONTINUOUS
 62
8
 10
1240.157456
 20
820.381609
 11
1184.947193
 21
758.621569
  0
LINE
  8
CutLine
  6
CONTINUOUS
 62
8
 10
1184.947193
 20
758.621569
 11
1163.767168
 21
757.435589
  0
LINE
  8
CutLine
  6
CONTINUOUS
 62
8
 10
1041.815311
 20
664.136108
 11
1020.812102
 21
661.158658
  0
LINE
  8
CutLine
  6
CONTINUOUS
 62
8
 10
1020.812102
 20
661.158658
 11
1009.132224
 21
669.938177
  0
LINE
  8
CutLine
  6
CONTINUOUS
 62
8
 10
1009.132224
 20
669.938177
 11
1006.154774
 21
690.941386
  0
LINE
  8
CutLine
  6
CONTINUOUS
 62
8
 10
1106.642267
 20
709.850715
 11
1098.465836
 21
685.730375
  0
LINE
  8
CutLine
  6
CONTINUOUS
 62
8
 10
1098.465836
 20
685.730375
 11
1062.718382
 21
660.522021
  0
LINE
  8
CutLine
  6
CONTINUOUS
 62
8
 10
1062.718382
 20
660.522021
 11
1041.815311
 21
664.136108
  0
LINE
  8
CutLine
  6
CONTINUOUS
 62
8
 10
738.300051
 20
830.739456
 11
722.295086
 21
844.662139
  0
LINE
  8
CutLine
  6
CONTINUOUS
 62
8
 10
722.295086
 20
844.662139
 11
715.718211
 21
939.188434
  0
LINE
  8
CutLine
  6
CONTINUOUS
 62
8
 10
715.718211
 20
939.188434
 11
729.640894
 21
955.193398
  0
LINE
  8
CutLine
  6
CONTINUOUS
 62
8
 10
729.640894
 20
955.193398
 11
727.444752
 21
976.858808
  0
LINE
  8
CutLine
  6
CONTINUOUS
 62
8
 10
727.444752
 20
976.858808
 11
748.075209
 21
1003.504826
  0
LINE
  8
CutLine
  6
CONTINUOUS
 62
8
 10
748.075209
 20
1003.504826
 11
769.118743
 21
1006.182450
  0
LINE
  8
CutLine
  6
CONTINUOUS
 62
8
 10
982.956816
 20
693.738834
 11
964.042744
 21
684.133737
  0
LINE
  8
CutLine
  6
CONTINUOUS
 62
8
 10
964.042744
 20
684.133737
 11
899.950558
 21
705.054139
  0
LINE
  8
CutLine
  6
CONTINUOUS
 62
8
 10
899.950558
 20
705.054139
 11
872.402481
 21
729.824999
  0
LINE
  8
CutLine
  6
CONTINUOUS
 62
8
 10
10.000000
 20
1394.249696
 11
30.730181
 21
1389.748630
  0
LINE
  8
CutLine
  6
CONTINUOUS
 62
8
 10
30.730181
 20
1389.748630
 11
64.771454
 21
1336.824998
  0
LINE
  8
CutLine
  6
CONTINUOUS
 62
8
 10
64.771454
 20
1336.824998
 11
60.270388
 21
1316.094817
  0
LINE
  8
CutLine
  6
CONTINUOUS
 62
8
 10
10.000000
 20
1295.193878
 11
-5.000000
 21
1310.193878
  0
LINE
  8
CutLine
  6
CONTINUOUS
 62
8
 10
-5.000000
 20
1310.193878
 11
-5.000000
 21
1379.249696
  0
LINE
  8
CutLine
  6
CONTINUOUS
 62
8
 10
-5.000000
 20
1379.249696
 11
10.000000
 21
1394.249696
  0
LINE
  8
CutLine
  6
CONTINUOUS
 62
8
 10
60.270388
 20
1316.094817
 11
52.178483
 21
1296.485608
  0
LINE
  8
CutLine
  6
CONTINUOUS
 62
8
 10
52.178483
 20
1296.485608
 11
29.609209
 21
1287.101972
  0
LINE
  8
CutLine
  6
CONTINUOUS
 62
8
 10
29.609209
 20
1287.101972
 11
10.000000
 21
1295.193878
  0
LINE
  8
CutLine
  6
CONTINUOUS
 62
8
 10
1811.426376
 20
1039.802759
 11
1793.609346
 21
1028.289573
  0
LINE
  8
CutLine
  6
CONTINUOUS
 62
8
 10
1793.609346
 20
1028.289573
 11
1768.446955
 21
1033.697640
  0
LINE
  8
CutLine
  6
CONTINUOUS
 62
8
 10
1768.446955
 20
1033.697640
 11
1756.933769
 21
1051.514670
  0
LINE
  8
CutLine
  6
CONTINUOUS
 62
8
 10
1783.354577
 20
1149.253735
 11
1805.659235
 21
1122.666078
  0
LINE
  8
CutLine
  6
CONTINUOUS
 62
8
 10
1805.659235
 20
1122.666078
 11
1822.229538
 21
1058.059037
  0
LINE
  8
CutLine
  6
CONTINUOUS
 62
8
 10
1822.229538
 20
1058.059037
 11
1811.426376
 21
1039.802759
  0
LINE
  8
CutLine
  6
CONTINUOUS
 62
8
 10
1823.468597
 20
1260.219205
 11
1832.475632
 21
1241.013130
  0
LINE
  8
CutLine
  6
CONTINUOUS
 62
8
 10
1832.475632
 20
1241.013130
 11
1805.306695
 21
1165.857014
  0
LINE
  8
CutLine
  6
CONTINUOUS
 62
8
 10
1805.306695
 20
1165.857014
 11
1783.354577
 21
1149.253735
  0
LINE
  8
CutLine
  6
CONTINUOUS
 62
8
 10
1753.604804
 20
1245.144183
 11
1765.103501
 21
1262.970567
  0
LINE
  8
CutLine
  6
CONTINUOUS
 62
8
 10
1765.103501
 20
1262.970567
 11
1805.642213
 21
1271.717902
  0
LINE
  8
CutLine
  6
CONTINUOUS
 62
8
 10
1805.642213
 20
1271.717902
 11
1823.468597
 21
1260.219205
  0
LINE
  8
CutLine
  6
CONTINUOUS
 62
8
 10
1681.167947
 20
1248.339733
 11
1696.814454
 21
1262.664077
  0
LINE
  8
CutLine
  6
CONTINUOUS
 62
8
 10
1696.814454
 20
1262.664077
 11
1739.280460
 21
1260.790690
  0
LINE
  8
CutLine
  6
CONTINUOUS
 62
8
 10
1739.280460
 20
1260.790690
 11
1753.604804
 21
1245.144183
  0
LINE
  8
CutLine
  6
CONTINUOUS
 62
8
 10
1629.774088
 20
1055.276162
 11
1617.969228
 21
1072.901294
  0
LINE
  8
CutLine
  6
CONTINUOUS
 62
8
 10
1617.969228
 20
1072.901294
 11
1629.216746
 21
1129.773959
  0
LINE
  8
CutLine
  6
CONTINUOUS
 62
8
 10
1629.216746
 20
1129.773959
 11
1648.359721
 21
1149.253735
  0
LINE
  8
CutLine
  6
CONTINUOUS
 62
8
 10
1682.160006
 20
1050.666860
 11
1665.903002
 21
1037.039320
  0
LINE
  8
CutLine
  6
CONTINUOUS
 62
8
 10
1665.903002
 20
1037.039320
 11
1643.401628
 21
1039.019158
  0
LINE
  8
CutLine
  6
CONTINUOUS
 62
8
 10
1643.401628
 20
1039.019158
 11
1629.774088
 21
1055.276162
  0
LINE
  8
CutLine
  6
CONTINUOUS
 62
8
 10
1648.359721
 20
1149.253735
 11
1628.554047
 21
1170.614823
  0
LINE
  8
CutLine
  6
CONTINUOUS
 62
8
 10
1628.554047
 20
1170.614823
 11
1617.265233
 21
1224.448028
  0
LINE
  8
CutLine
  6
CONTINUOUS
 62
8
 10
1617.265233
 20
1224.448028
 11
1628.867383
 21
1242.207254
  0
LINE
  8
CutLine
  6
CONTINUOUS
 62
8
 10
490.045559
 20
289.225320
 11
506.253135
 21
274.491705
  0
LINE
  8
CutLine
  6
CONTINUOUS
 62
8
 10
506.253135
 20
274.491705
 11
510.069499
 21
226.063344
  0
LINE
  8
CutLine
  6
CONTINUOUS
 62
8
 10
510.069499
 20
226.063344
 11
496.294270
 21
209.931293
  0
LINE
  8
CutLine
  6
CONTINUOUS
 62
8
 10
427.468782
 20
416.415465
 11
451.353786
 21
401.846472
  0
LINE
  8
CutLine
  6
CONTINUOUS
 62
8
 10
451.353786
 20
401.846472
 11
496.882932
 21
309.306414
  0
LINE
  8
CutLine
  6
CONTINUOUS
 62
8
 10
496.882932
 20
309.306414
 11
490.045559
 21
289.225320
  0
LINE
  8
CutLine
  6
CONTINUOUS
 62
8
 10
487.858978
 20
1005.990101
 11
508.075103
 21
999.562948
  0
LINE
  8
CutLine
  6
CONTINUOUS
 62
8
 10
508.075103
 20
999.562948
 11
535.659183
 21
946.264537
  0
LINE
  8
CutLine
  6
CONTINUOUS
 62
8
 10
535.659183
 20
946.264537
 11
529.232030
 21
926.048412
  0
LINE
  8
CutLine
  6
CONTINUOUS
 62
8
 10
529.232030
 20
926.048412
 11
528.152654
 21
900.035680
  0
LINE
  8
CutLine
  6
CONTINUOUS
 62
8
 10
528.152654
 20
900.035680
 11
522.282374
 21
892.400825
  0
LINE
  8
CutLine
  6
CONTINUOUS
 62
8
 10
522.282374
 20
892.400825
 11
501.247960
 21
889.652477
  0
LINE
  8
CutLine
  6
CONTINUOUS
 62
8
 10
209.439173
 20
1114.558844
 11
188.233724
 21
1113.985302
  0
LINE
  8
CutLine
  6
CONTINUOUS
 62
8
 10
188.233724
 20
1113.985302
 11
169.197396
 21
1132.019000
  0
LINE
  8
CutLine
  6
CONTINUOUS
 62
8
 10
169.197396
 20
1132.019000
 11
168.623854
 21
1153.224449
  0
LINE
  8
CutLine
  6
CONTINUOUS
 62
8
 10
311.104212
 20
1162.552173
 11
325.442842
 21
1147.796301
  0
LINE
  8
CutLine
  6
CONTINUOUS
 62
8
 10
325.442842
 20
1147.796301
 11
325.138657
 21
1126.585279
  0
LINE
  8
CutLine
  6
CONTINUOUS
 62
8
 10
325.138657
 20
1126.585279
 11
311.769868
 21
1110.114837
  0
LINE
  8
CutLine
  6
CONTINUOUS
 62
8
 10
311.769868
 20
1110.114837
 11
243.834232
 21
1103.053236
  0
LINE
  8
CutLine
  6
CONTINUOUS
 62
8
 10
243.834232
 20
1103.053236
 11
209.439173
 21
1114.558844
  0
LINE
  8
CutLine
  6
CONTINUOUS
 62
8
 10
441.472134
 20
519.475727
 11
432.289310
 21
500.353077
  0
LINE
  8
CutLine
  6
CONTINUOUS
 62
8
 10
432.289310
 20
500.353077
 11
352.838348
 21
472.452864
  0
LINE
  8
CutLine
  6
CONTINUOUS
 62
8
 10
352.838348
 20
472.452864
 11
333.715698
 21
481.635687
  0
LINE
  8
CutLine
  6
CONTINUOUS
 62
8
 10
235.761213
 20
509.948493
 11
222.819562
 21
526.756637
  0
LINE
  8
CutLine
  6
CONTINUOUS
 62
8
 10
222.819562
 20
526.756637
 11
227.060489
 21
559.387426
  0
LINE
  8
CutLine
  6
CONTINUOUS
 62
8
 10
227.060489
 20
559.387426
 11
243.868632
 21
572.329077
  0
LINE
  8
CutLine
  6
CONTINUOUS
 62
8
 10
440.170949
 20
682.153118
 11
435.149193
 21
702.763357
  0
LINE
  8
CutLine
  6
CONTINUOUS
 62
8
 10
435.149193
 20
702.763357
 11
474.058308
 21
766.741248
  0
LINE
  8
CutLine
  6
CONTINUOUS
 62
8
 10
474.058308
 20
766.741248
 11
514.979549
 21
805.160194
  0
LINE
  8
CutLine
  6
CONTINUOUS
 62
8
 10
654.799133
 20
817.790490
 11
663.980790
 21
798.667280
  0
LINE
  8
CutLine
  6
CONTINUOUS
 62
8
 10
663.980790
 20
798.667280
 11
622.111947
 21
679.461368
  0
LINE
  8
CutLine
  6
CONTINUOUS
 62
8
 10
622.111947
 20
679.461368
 11
602.988736
 21
670.279711
  0
LINE
  8
CutLine
  6
CONTINUOUS
 62
8
 10
639.979395
 20
965.477446
 11
656.402104
 21
952.050063
  0
LINE
  8
CutLine
  6
CONTINUOUS
 62
8
 10
656.402104
 20
952.050063
 11
668.226516
 21
834.213200
  0
LINE
  8
CutLine
  6
CONTINUOUS
 62
8
 10
668.226516
 20
834.213200
 11
654.799133
 21
817.790490
  0
LINE
  8
CutLine
  6
CONTINUOUS
 62
8
 10
594.978073
 20
1091.466993
 11
614.149571
 21
1082.386592
  0
LINE
  8
CutLine
  6
CONTINUOUS
 62
8
 10
614.149571
 20
1082.386592
 11
649.059795
 21
984.648944
  0
LINE
  8
CutLine
  6
CONTINUOUS
 62
8
 10
649.059795
 20
984.648944
 11
639.979395
 21
965.477446
  0
LINE
  8
CutLine
  6
CONTINUOUS
 62
8
 10
495.742588
 20
1189.141656
 11
516.955125
 21
1189.309799
  0
LINE
  8
CutLine
  6
CONTINUOUS
 62
8
 10
516.955125
 20
1189.309799
 11
594.809930
 21
1112.679530
  0
LINE
  8
CutLine
  6
CONTINUOUS
 62
8
 10
594.809930
 20
1112.679530
 11
594.978073
 21
1091.466993
  0
LINE
  8
CutLine
  6
CONTINUOUS
 62
8
 10
56.101398
 20
1204.758582
 11
64.842521
 21
1224.087130
  0
LINE
  8
CutLine
  6
CONTINUOUS
 62
8
 10
64.842521
 20
1224.087130
 11
78.165766
 21
1229.112442
  0
LINE
  8
CutLine
  6
CONTINUOUS
 62
8
 10
78.165766
 20
1229.112442
 11
97.494314
 21
1220.371320
  0
LINE
  8
CutLine
  6
CONTINUOUS
 62
8
 10
21.399049
 20
1137.630161
 11
14.962555
 21
1157.843314
  0
LINE
  8
CutLine
  6
CONTINUOUS
 62
8
 10
14.962555
 20
1157.843314
 11
24.490921
 21
1176.275039
  0
LINE
  8
CutLine
  6
CONTINUOUS
 62
8
 10
24.490921
 20
1176.275039
 11
56.101398
 21
1204.758582
  0
LINE
  8
CutLine
  6
CONTINUOUS
 62
8
 10
233.158661
 20
1259.480390
 11
249.341829
 21
1273.195530
  0
LINE
  8
CutLine
  6
CONTINUOUS
 62
8
 10
249.341829
 20
1273.195530
 11
326.614390
 21
1266.816878
  0
LINE
  8
CutLine
  6
CONTINUOUS
 62
8
 10
326.614390
 20
1266.816878
 11
340.329530
 21
1250.633709
  0
LINE
  8
CutLine
  6
CONTINUOUS
 62
8
 10
97.494314
 20
1220.371320
 11
107.752401
 21
1238.939347
  0
LINE
  8
CutLine
  6
CONTINUOUS
 62
8
 10
107.752401
 20
1238.939347
 11
214.590633
 21
1269.738478
  0
LINE
  8
CutLine
  6
CONTINUOUS
 62
8
 10
214.590633
 20
1269.738478
 11
233.158661
 21
1259.480390
  0
LINE
  8
CutLine
  6
CONTINUOUS
 62
8
 10
340.329530
 20
1250.633709
 11
359.796155
 21
1259.062856
  0
LINE
  8
CutLine
  6
CONTINUOUS
 62
8
 10
359.796155
 20
1259.062856
 11
487.313442
 21
1208.608281
  0
LINE
  8
CutLine
  6
CONTINUOUS
 62
8
 10
487.313442
 20
1208.608281
 11
495.742588
 21
1189.141656
  0
LINE
  8
CutLine
  6
CONTINUOUS
 62
8
 10
378.900385
 20
1047.687292
 11
382.069712
 21
1068.662405
  0
LINE
  8
CutLine
  6
CONTINUOUS
 62
8
 10
382.069712
 20
1068.662405
 11
392.079153
 21
1076.044062
  0
LINE
  8
CutLine
  6
CONTINUOUS
 62
8
 10
392.079153
 20
1076.044062
 11
413.054266
 21
1072.874735
  0
LINE
  8
MountainLine
  6
CONTINUOUS
 62
5
 10
589.447541
 20
2354.252367
 11
656.966655
 21
2367.588473
  0
LINE
  8
MountainLine
  6
CONTINUOUS
 62
5
 10
656.966655
 20
2367.588473
 11
650.879186
 21
2422.413357
  0
LINE
  8
MountainLine
  6
CONTINUOUS
 62
5
 10
650.879186
 20
2422.413357
 11
589.447541
 21
2354.252367
  0
LINE
  8
ValleyLine
  6
CONTINUOUS
 62
1
 10
830.808615
 20
2085.253484
 11
565.033011
 21
2188.535021
  0
LINE
  8
CutLine
  6
CONTINUOUS
 62
8
 10
565.033011
 20
2188.535021
 11
780.027524
 21
2050.440897
  0
LINE
  8
MountainLine
  6
CONTINUOUS
 62
5
 10
780.027524
 20
2050.440897
 11
830.808615
 21
2085.253484
  0
LINE
  8
MountainLine
  6
CONTINUOUS
 62
5
 10
587.904615
 20
2237.608496
 11
565.033011
 21
2188.535021
  0
LINE
  8
MountainLine
  6
CONTINUOUS
 62
5
 10
830.808615
 20
2085.253484
 11
587.904615
 21
2237.608496
  0
LINE
  8
CutLine
  6
CONTINUOUS
 62
8
 10
819.036327
 20
2223.505118
 11
902.915288
 21
2303.390038
  0
LINE
  8
MountainLine
  6
CONTINUOUS
 62
5
 10
902.915288
 20
2303.390038
 11
885.144338
 21
2442.572240
  0
LINE
  8
MountainLine
  6
CONTINUOUS
 62
5
 10
885.144338
 20
2442.572240
 11
656.966655
 21
2367.588473
  0
LINE
  8
MountainLine
  6
CONTINUOUS
 62
5
 10
656.966655
 20
2367.588473
 11
587.904615
 21
2237.608496
  0
LINE
  8
MountainLine
  6
CONTINUOUS
 62
5
 10
587.904615
 20
2237.608496
 11
836.572730
 21
2112.610665
  0
LINE
  8
MountainLine
  6
CONTINUOUS
 62
5
 10
836.572730
 20
2112.610665
 11
819.036327
 21
2223.505118
  0
LINE
  8
CutLine
  6
CONTINUOUS
 62
8
 10
830.808615
 20
2085.253484
 11
836.572730
 21
2112.610665
  0
LINE
  8
MountainLine
  6
CONTINUOUS
 62
5
 10
610.617971
 20
2290.832747
 11
587.904615
 21
2237.608496
  0
LINE
  8
MountainLine
  6
CONTINUOUS
 62
5
 10
589.447541
 20
2354.252367
 11
610.617971
 21
2290.832747
  0
LINE
  8
ValleyLine
  6
CONTINUOUS
 62
1
 10
895.912482
 20
2479.526503
 11
656.966655
 21
2367.588473
  0
LINE
  8
CutLine
  6
CONTINUOUS
 62
8
 10
885.144338
 20
2442.572240
 11
895.912482
 21
2479.526503
  0
LINE
  8
CutLine
  6
CONTINUOUS
 62
8
 10
661.608392
 20
2422.554640
 11
656.966655
 21
2367.588473
  0
LINE
  8
MountainLine
  6
CONTINUOUS
 62
5
 10
895.912482
 20
2479.526503
 11
661.608392
 21
2422.554640
  0
LINE
  8
MountainLine
  6
CONTINUOUS
 62
5
 10
610.617971
 20
2290.832747
 11
572.927706
 21
2259.863951
  0
LINE
  8
MountainLine
  6
CONTINUOUS
 62
5
 10
572.927706
 20
2259.863951
 11
587.904615
 21
2237.608496
  0
LINE
  8
MountainLine
  6
CONTINUOUS
 62
5
 10
819.036327
 20
2223.505118
 11
885.341723
 21
2141.633341
  0
LINE
  8
MountainLine
  6
CONTINUOUS
 62
5
 10
885.341723
 20
2141.633341
 11
867.414156
 21
2206.229756
  0
LINE
  8
CutLine
  6
CONTINUOUS
 62
8
 10
867.414156
 20
2206.229756
 11
819.036327
 21
2223.505118
  0
LINE
  8
MountainLine
  6
CONTINUOUS
 62
5
 10
836.572730
 20
2112.610665
 11
885.341723
 21
2141.633341
  0
LINE
  8
MountainLine
  6
CONTINUOUS
 62
5
 10
975.893729
 20
2284.939814
 11
885.144338
 21
2442.572240
  0
LINE
  8
CutLine
  6
CONTINUOUS
 62
8
 10
902.915288
 20
2303.390038
 11
975.893729
 21
2284.939814
  0
LINE
  8
ValleyLine
  6
CONTINUOUS
 62
1
 10
975.893729
 20
2284.939814
 11
910.745213
 21
2471.315338
  0
LINE
  8
MountainLine
  6
CONTINUOUS
 62
5
 10
910.745213
 20
2471.315338
 11
885.144338
 21
2442.572240
  0
LINE
  8
MountainLine
  6
CONTINUOUS
 62
5
 10
1079.069993
 20
2298.590958
 11
975.893729
 21
2284.939814
  0
LINE
  8
CutLine
  6
CONTINUOUS
 62
8
 10
975.893729
 20
2284.939814
 11
974.518760
 21
2190.237102
  0
LINE
  8
MountainLine
  6
CONTINUOUS
 62
5
 10
974.518760
 20
2190.237102
 11
1079.069993
 21
2298.590958
  0
LINE
  8
MountainLine
  6
CONTINUOUS
 62
5
 10
1079.069993
 20
2298.590958
 11
954.715773
 21
2528.428426
  0
LINE
  8
ValleyLine
  6
CONTINUOUS
 62
1
 10
954.715773
 20
2528.428426
 11
975.893729
 21
2284.939814
  0
LINE
  8
ValleyLine
  6
CONTINUOUS
 62
1
 10
1034.348080
 20
2397.385238
 11
954.715773
 21
2528.428426
  0
LINE
  8
MountainLine
  6
CONTINUOUS
 62
5
 10
1079.069993
 20
2298.590958
 11
1034.348080
 21
2397.385238
  0
LINE
  8
CutLine
  6
CONTINUOUS
 62
8
 10
954.715773
 20
2528.428426
 11
910.745213
 21
2471.315338
  0
LINE
  8
MountainLine
  6
CONTINUOUS
 62
5
 10
753.164275
 20
1953.090227
 11
830.808615
 21
2085.253484
  0
LINE
  8
ValleyLine
  6
CONTINUOUS
 62
1
 10
780.027524
 20
2050.440897
 11
753.164275
 21
1953.090227
  0
LINE
  8
MountainLine
  6
CONTINUOUS
 62
5
 10
493.927042
 20
2117.191373
 11
399.428038
 21
2001.360040
  0
LINE
  8
MountainLine
  6
CONTINUOUS
 62
5
 10
399.428038
 20
2001.360040
 11
441.074714
 21
2031.062768
  0
LINE
  8
ValleyLine
  6
CONTINUOUS
 62
1
 10
441.074714
 20
2031.062768
 11
493.927042
 21
2117.191373
  0
LINE
  8
MountainLine
  6
CONTINUOUS
 62
5
 10
434.963850
 20
2162.402412
 11
561.104746
 21
2238.783292
  0
LINE
  8
CutLine
  6
CONTINUOUS
 62
8
 10
561.104746
 20
2238.783292
 11
534.321815
 21
2279.554568
  0
LINE
  8
ValleyLine
  6
CONTINUOUS
 62
1
 10
534.321815
 20
2279.554568
 11
434.963850
 21
2162.402412
  0
LINE
  8
CutLine
  6
CONTINUOUS
 62
8
 10
353.036375
 20
2034.292801
 11
399.428038
 21
2001.360040
  0
LINE
  8
MountainLine
  6
CONTINUOUS
 62
5
 10
493.927042
 20
2117.191373
 11
561.104746
 21
2238.783292
  0
LINE
  8
ValleyLine
  6
CONTINUOUS
 62
1
 10
434.963850
 20
2162.402412
 11
353.036375
 21
2034.292801
  0
LINE
  8
MountainLine
  6
CONTINUOUS
 62
5
 10
434.963850
 20
2162.402412
 11
328.558460
 21
2087.178277
  0
LINE
  8
CutLine
  6
CONTINUOUS
 62
8
 10
328.558460
 20
2087.178277
 11
353.036375
 21
2034.292801
  0
LINE
  8
ValleyLine
  6
CONTINUOUS
 62
1
 10
493.927042
 20
2117.191373
 11
565.033011
 21
2188.535021
  0
LINE
  8
MountainLine
  6
CONTINUOUS
 62
5
 10
587.904615
 20
2237.608496
 11
493.927042
 21
2117.191373
  0
LINE
  8
CutLine
  6
CONTINUOUS
 62
8
 10
587.904615
 20
2237.608496
 11
561.104746
 21
2238.783292
  0
LINE
  8
ValleyLine
  6
CONTINUOUS
 62
1
 10
753.164275
 20
1953.090227
 11
858.107204
 21
2079.217975
  0
LINE
  8
MountainLine
  6
CONTINUOUS
 62
5
 10
858.107204
 20
2079.217975
 11
830.808615
 21
2085.253484
  0
LINE
  8
ValleyLine
  6
CONTINUOUS
 62
1
 10
821.960731
 20
1915.963436
 11
722.958725
 21
1791.699759
  0
LINE
  8
MountainLine
  6
CONTINUOUS
 62
5
 10
722.958725
 20
1791.699759
 11
768.906963
 21
1807.068361
  0
LINE
  8
MountainLine
  6
CONTINUOUS
 62
5
 10
768.906963
 20
1807.068361
 11
821.960731
 21
1915.963436
  0
LINE
  8
ValleyLine
  6
CONTINUOUS
 62
1
 10
821.960731
 20
1915.963436
 11
858.107204
 21
2079.217975
  0
LINE
  8
MountainLine
  6
CONTINUOUS
 62
5
 10
753.164275
 20
1953.090227
 11
821.960731
 21
1915.963436
  0
LINE
  8
ValleyLine
  6
CONTINUOUS
 62
1
 10
753.164275
 20
1953.090227
 11
722.958725
 21
1791.699759
  0
LINE
  8
MountainLine
  6
CONTINUOUS
 62
5
 10
753.164275
 20
1953.090227
 11
686.241994
 21
1812.127422
  0
LINE
  8
CutLine
  6
CONTINUOUS
 62
8
 10
686.241994
 20
1812.127422
 11
722.958725
 21
1791.699759
  0
LINE
  8
CutLine
  6
CONTINUOUS
 62
8
 10
887.499038
 20
2030.670570
 11
858.107204
 21
2079.217975
  0
LINE
  8
MountainLine
  6
CONTINUOUS
 62
5
 10
821.960731
 20
1915.963436
 11
887.499038
 21
2030.670570
  0
LINE
  8
ValleyLine
  6
CONTINUOUS
 62
1
 10
276.401411
 20
1491.044247
 11
152.430822
 21
1447.205872
  0
LINE
  8
MountainLine
  6
CONTINUOUS
 62
5
 10
152.430822
 20
1447.205872
 11
204.568156
 21
1397.436269
  0
LINE
  8
CutLine
  6
CONTINUOUS
 62
8
 10
204.568156
 20
1397.436269
 11
276.401411
 21
1491.044247
  0
LINE
  8
MountainLine
  6
CONTINUOUS
 62
5
 10
393.810514
 20
1885.399964
 11
337.225457
 21
1871.465354
  0
LINE
  8
MountainLine
  6
CONTINUOUS
 62
5
 10
337.225457
 20
1871.465354
 11
323.316341
 21
1823.250692
  0
LINE
  8
MountainLine
  6
CONTINUOUS
 62
5
 10
323.316341
 20
1823.250692
 11
393.810514
 21
1885.399964
  0
LINE
  8
CutLine
  6
CONTINUOUS
 62
8
 10
427.576139
 20
1575.652513
 11
559.696755
 21
1636.673989
  0
LINE
  8
CutLine
  6
CONTINUOUS
 62
8
 10
559.696755
 20
1636.673989
 11
553.311269
 21
1723.648056
  0
LINE
  8
MountainLine
  6
CONTINUOUS
 62
5
 10
353.550060
 20
1772.189113
 11
427.576139
 21
1575.652513
  0
LINE
  8
MountainLine
  6
CONTINUOUS
 62
5
 10
424.477621
 20
1933.319497
 11
353.550060
 21
1772.189113
  0
LINE
  8
MountainLine
  6
CONTINUOUS
 62
5
 10
553.311269
 20
1723.648056
 11
664.991710
 21
1775.880585
  0
LINE
  8
MountainLine
  6
CONTINUOUS
 62
5
 10
664.991710
 20
1775.880585
 11
686.241994
 21
1812.127422
  0
LINE
  8
MountainLine
  6
CONTINUOUS
 62
5
 10
686.241994
 20
1812.127422
 11
424.477621
 21
1933.319497
  0
LINE
  8
MountainLine
  6
CONTINUOUS
 62
5
 10
393.810514
 20
1885.399964
 11
353.550060
 21
1772.189113
  0
LINE
  8
MountainLine
  6
CONTINUOUS
 62
5
 10
424.477621
 20
1933.319497
 11
393.810514
 21
1885.399964
  0
LINE
  8
CutLine
  6
CONTINUOUS
 62
8
 10
323.316341
 20
1823.250692
 11
353.550060
 21
1772.189113
  0
LINE
  8
MountainLine
  6
CONTINUOUS
 62
5
 10
144.733726
 20
1847.602832
 11
36.020549
 21
1767.275184
  0
LINE
  8
MountainLine
  6
CONTINUOUS
 62
5
 10
36.020549
 20
1767.275184
 11
180.134078
 21
1743.679675
  0
LINE
  8
ValleyLine
  6
CONTINUOUS
 62
1
 10
180.134078
 20
1743.679675
 11
144.733726
 21
1847.602832
  0
LINE
  8
MountainLine
  6
CONTINUOUS
 62
5
 10
180.134078
 20
1743.679675
 11
274.587931
 21
1858.496087
  0
LINE
  8
CutLine
  6
CONTINUOUS
 62
8
 10
274.587931
 20
1858.496087
 11
144.733726
 21
1847.602832
  0
LINE
  8
MountainLine
  6
CONTINUOUS
 62
5
 10
180.134078
 20
1743.679675
 11
302.403615
 21
1816.730013
  0
LINE
  8
CutLine
  6
CONTINUOUS
 62
8
 10
302.403615
 20
1816.730013
 11
274.587931
 21
1858.496087
  0
LINE
  8
MountainLine
  6
CONTINUOUS
 62
5
 10
180.134078
 20
1743.679675
 11
312.627842
 21
1732.796525
  0
LINE
  8
CutLine
  6
CONTINUOUS
 62
8
 10
312.627842
 20
1732.796525
 11
302.403615
 21
1816.730013
  0
LINE
  8
ValleyLine
  6
CONTINUOUS
 62
1
 10
180.134078
 20
1743.679675
 11
152.430822
 21
1447.205872
  0
LINE
  8
MountainLine
  6
CONTINUOUS
 62
5
 10
276.401411
 20
1491.044247
 11
180.134078
 21
1743.679675
  0
LINE
  8
MountainLine
  6
CONTINUOUS
 62
5
 10
276.401411
 20
1491.044247
 11
312.627842
 21
1732.796525
  0
LINE
  8
CutLine
  6
CONTINUOUS
 62
8
 10
180.134078
 20
1743.679675
 11
65.972834
 21
1672.304108
  0
LINE
  8
CutLine
  6
CONTINUOUS
 62
8
 10
65.972834
 20
1672.304108
 11
152.430822
 21
1447.205872
  0
LINE
  8
ValleyLine
  6
CONTINUOUS
 62
1
 10
276.401411
 20
1491.044247
 11
396.192341
 21
1536.438004
  0
LINE
  8
MountainLine
  6
CONTINUOUS
 62
5
 10
396.192341
 20
1536.438004
 11
312.627842
 21
1732.796525
  0
LINE
  8
MountainLine
  6
CONTINUOUS
 62
5
 10
353.550060
 20
1772.189113
 11
312.627842
 21
1732.796525
  0
LINE
  8
MountainLine
  6
CONTINUOUS
 62
5
 10
396.192341
 20
1536.438004
 11
353.550060
 21
1772.189113
  0
LINE
  8
MountainLine
  6
CONTINUOUS
 62
5
 10
353.550060
 20
1772.189113
 11
315.016142
 21
1817.316707
  0
LINE
  8
MountainLine
  6
CONTINUOUS
 62
5
 10
315.016142
 20
1817.316707
 11
312.627842
 21
1732.796525
  0
LINE
  8
CutLine
  6
CONTINUOUS
 62
8
 10
396.192341
 20
1536.438004
 11
427.576139
 21
1575.652513
  0
LINE
  8
CutLine
  6
CONTINUOUS
 62
8
 10
36.020549
 20
1767.275184
 11
61.915971
 21
1679.245674
  0
LINE
  8
MountainLine
  6
CONTINUOUS
 62
5
 10
61.915971
 20
1679.245674
 11
180.134078
 21
1743.679675
  0
LINE
  8
CutLine
  6
CONTINUOUS
 62
8
 10
144.733726
 20
1847.602832
 11
-6.212197
 21
1819.107901
  0
LINE
  8
CutLine
  6
CONTINUOUS
 62
8
 10
-6.212197
 20
1819.107901
 11
36.020549
 21
1767.275184
  0
LINE
  8
ValleyLine
  6
CONTINUOUS
 62
1
 10
687.773343
 20
1876.231224
 11
452.593303
 21
1976.053629
  0
LINE
  8
CutLine
  6
CONTINUOUS
 62
8
 10
452.593303
 20
1976.053629
 11
424.477621
 21
1933.319497
  0
LINE
  8
MountainLine
  6
CONTINUOUS
 62
5
 10
686.241994
 20
1812.127422
 11
687.773343
 21
1876.231224
  0
LINE
  8
ValleyLine
  6
CONTINUOUS
 62
1
 10
753.164275
 20
1953.090227
 11
687.773343
 21
1876.231224
  0
LINE
  8
CutLine
  6
CONTINUOUS
 62
8
 10
676.134345
 20
1728.728955
 11
664.991710
 21
1775.880585
  0
LINE
  8
ValleyLine
  6
CONTINUOUS
 62
1
 10
553.311269
 20
1723.648056
 11
676.134345
 21
1728.728955
  0
LINE
  8
CutLine
  6
CONTINUOUS
 62
8
 10
553.311269
 20
1723.648056
 11
591.587571
 21
1697.469338
  0
LINE
  8
MountainLine
  6
CONTINUOUS
 62
5
 10
591.587571
 20
1697.469338
 11
676.134345
 21
1728.728955
  0
LINE
  8
CutLine
  6
CONTINUOUS
 62
8
 10
276.401411
 20
1491.044247
 11
388.989581
 21
1481.481500
  0
LINE
  8
MountainLine
  6
CONTINUOUS
 62
5
 10
388.989581
 20
1481.481500
 11
396.192341
 21
1536.438004
  0
LINE
  8
ValleyLine
  6
CONTINUOUS
 62
1
 10
729.885048
 20
1620.176196
 11
728.279451
 21
1472.625268
  0
LINE
  8
CutLine
  6
CONTINUOUS
 62
8
 10
728.279451
 20
1472.625268
 11
788.616990
 21
1501.839577
  0
LINE
  8
CutLine
  6
CONTINUOUS
 62
8
 10
788.616990
 20
1501.839577
 11
729.885048
 21
1620.176196
  0
LINE
  8
CutLine
  6
CONTINUOUS
 62
8
 10
654.241017
 20
1582.853886
 11
728.279451
 21
1472.625268
  0
LINE
  8
CutLine
  6
CONTINUOUS
 62
8
 10
729.885048
 20
1620.176196
 11
676.134345
 21
1728.728955
  0
LINE
  8
ValleyLine
  6
CONTINUOUS
 62
1
 10
591.587571
 20
1697.469338
 11
654.241017
 21
1582.853886
  0
LINE
  8
ValleyLine
  6
CONTINUOUS
 62
1
 10
1498.029176
 20
3509.458072
 11
1502.342911
 21
3510.207228
  0
LINE
  8
CutLine
  6
CONTINUOUS
 62
8
 10
1502.342911
 20
3510.207228
 11
1500.152801
 21
3510.012825
  0
LINE
  8
CutLine
  6
CONTINUOUS
 62
8
 10
1500.152801
 20
3510.012825
 11
1498.029176
 21
3509.458072
  0
LINE
  8
MountainLine
  6
CONTINUOUS
 62
5
 10
1360.836723
 20
2295.352014
 11
1279.419090
 21
2131.803988
  0
LINE
  8
CutLine
  6
CONTINUOUS
 62
8
 10
1279.419090
 20
2131.803988
 11
1378.119979
 21
2134.866629
  0
LINE
  8
CutLine
  6
CONTINUOUS
 62
8
 10
1378.119979
 20
2134.866629
 11
1360.836723
 21
2295.352014
  0
LINE
  8
MountainLine
  6
CONTINUOUS
 62
5
 10
1162.374680
 20
2267.975004
 11
1186.316474
 21
2109.505469
  0
LINE
  8
CutLine
  6
CONTINUOUS
 62
8
 10
1186.316474
 20
2109.505469
 11
1279.419090
 21
2131.803988
  0
LINE
  8
CutLine
  6
CONTINUOUS
 62
8
 10
1260.740263
 20
2282.614968
 11
1162.374680
 21
2267.975004
  0
LINE
  8
MountainLine
  6
CONTINUOUS
 62
5
 10
1360.836723
 20
2295.352014
 11
1340.711146
 21
2299.525534
  0
LINE
  8
CutLine
  6
CONTINUOUS
 62
8
 10
1340.711146
 20
2299.525534
 11
1260.740263
 21
2282.614968
  0
LINE
  8
MountainLine
  6
CONTINUOUS
 62
5
 10
1440.238122
 20
2930.479409
 11
1409.357436
 21
2837.356714
  0
LINE
  8
ValleyLine
  6
CONTINUOUS
 62
1
 10
1409.357436
 20
2837.356714
 11
1529.502580
 21
2868.765323
  0
LINE
  8
CutLine
  6
CONTINUOUS
 62
8
 10
1529.502580
 20
2868.765323
 11
1440.238122
 21
2930.479409
  0
LINE
  8
CutLine
  6
CONTINUOUS
 62
8
 10
1448.571157
 20
2783.491767
 11
1529.502580
 21
2868.765323
  0
LINE
  8
MountainLine
  6
CONTINUOUS
 62
5
 10
1409.357436
 20
2837.356714
 11
1448.571157
 21
2783.491767
  0
LINE
  8
MountainLine
  6
CONTINUOUS
 62
5
 10
1683.240353
 20
3364.564149
 11
1588.404556
 21
3360.720774
  0
LINE
  8
MountainLine
  6
CONTINUOUS
 62
5
 10
1493.417860
 20
3349.660157
 11
1506.608305
 21
3221.854341
  0
LINE
  8
ValleyLine
  6
CONTINUOUS
 62
1
 10
1506.608305
 20
3221.854341
 11
1599.214711
 21
3248.336162
  0
LINE
  8
MountainLine
  6
CONTINUOUS
 62
5
 10
1588.404556
 20
3360.720774
 11
1493.417860
 21
3349.660157
  0
LINE
  8
ValleyLine
  6
CONTINUOUS
 62
1
 10
1599.214711
 20
3248.336162
 11
1693.921360
 21
3256.646239
  0
LINE
  8
CutLine
  6
CONTINUOUS
 62
8
 10
1693.921360
 20
3256.646239
 11
1683.240353
 21
3364.564149
  0
LINE
  8
CutLine
  6
CONTINUOUS
 62
8
 10
1075.842148
 20
3103.302004
 11
1033.556261
 21
3080.483705
  0
LINE
  8
MountainLine
  6
CONTINUOUS
 62
5
 10
1033.556261
 20
3080.483705
 11
1131.368509
 21
2992.244071
  0
LINE
  8
MountainLine
  6
CONTINUOUS
 62
5
 10
1292.772936
 20
2961.875583
 11
1409.370439
 21
3034.715905
  0
LINE
  8
MountainLine
  6
CONTINUOUS
 62
5
 10
1409.370439
 20
3034.715905
 11
1301.510293
 21
3046.672528
  0
LINE
  8
MountainLine
  6
CONTINUOUS
 62
5
 10
1131.368509
 20
2992.244071
 11
1292.772936
 21
2961.875583
  0
LINE
  8
MountainLine
  6
CONTINUOUS
 62
5
 10
1439.400437
 20
3110.082050
 11
1483.554440
 21
3158.833352
  0
LINE
  8
CutLine
  6
CONTINUOUS
 62
8
 10
1483.554440
 20
3158.833352
 11
1496.164062
 21
3259.903801
  0
LINE
  8
MountainLine
  6
CONTINUOUS
 62
5
 10
1496.164062
 20
3259.903801
 11
1358.750120
 21
3175.218040
  0
LINE
  8
MountainLine
  6
CONTINUOUS
 62
5
 10
1349.118309
 20
3109.850270
 11
1439.400437
 21
3110.082050
  0
LINE
  8
MountainLine
  6
CONTINUOUS
 62
5
 10
1484.769924
 20
3501.082319
 11
1417.843988
 21
3445.536296
  0
LINE
  8
MountainLine
  6
CONTINUOUS
 62
5
 10
1417.843988
 20
3445.536296
 11
1492.780859
 21
3359.762482
  0
LINE
  8
MountainLine
  6
CONTINUOUS
 62
5
 10
1492.780859
 20
3359.762482
 11
1484.769924
 21
3501.082319
  0
LINE
  8
CutLine
  6
CONTINUOUS
 62
8
 10
1375.047761
 20
3308.311222
 11
1492.780859
 21
3359.762482
  0
LINE
  8
ValleyLine
  6
CONTINUOUS
 62
1
 10
1238.006722
 20
3293.646063
 11
1375.047761
 21
3308.311222
  0
LINE
  8
ValleyLine
  6
CONTINUOUS
 62
1
 10
1417.843988
 20
3445.536296
 11
1238.006722
 21
3293.646063
  0
LINE
  8
CutLine
  6
CONTINUOUS
 62
8
 10
1358.750120
 20
3175.218040
 11
1375.047761
 21
3308.311222
  0
LINE
  8
CutLine
  6
CONTINUOUS
 62
8
 10
1301.510293
 20
3046.672528
 11
1349.118309
 21
3109.850270
  0
LINE
  8
MountainLine
  6
CONTINUOUS
 62
5
 10
1238.006722
 20
3293.646063
 11
1062.136524
 21
3221.020165
  0
LINE
  8
CutLine
  6
CONTINUOUS
 62
8
 10
1062.136524
 20
3221.020165
 11
1075.842148
 21
3103.302004
  0
LINE
  8
ValleyLine
  6
CONTINUOUS
 62
1
 10
1215.374258
 20
3344.581165
 11
1062.136524
 21
3221.020165
  0
LINE
  8
CutLine
  6
CONTINUOUS
 62
8
 10
1238.006722
 20
3293.646063
 11
1215.374258
 21
3344.581165
  0
LINE
  8
CutLine
  6
CONTINUOUS
 62
8
 10
1025.692035
 20
3369.969911
 11
1062.136524
 21
3221.020165
  0
LINE
  8
MountainLine
  6
CONTINUOUS
 62
5
 10
1215.374258
 20
3344.581165
 11
1146.646739
 21
3374.049158
  0
LINE
  8
CutLine
  6
CONTINUOUS
 62
8
 10
1146.646739
 20
3374.049158
 11
1129.158490
 21
3423.644431
  0
LINE
  8
MountainLine
  6
CONTINUOUS
 62
5
 10
1129.158490
 20
3423.644431
 11
1064.552560
 21
3432.020696
  0
LINE
  8
MountainLine
  6
CONTINUOUS
 62
5
 10
1064.552560
 20
3432.020696
 11
1025.692035
 21
3369.969911
  0
LINE
  8
ValleyLine
  6
CONTINUOUS
 62
1
 10
1249.014733
 20
3347.968442
 11
1417.843988
 21
3445.536296
  0
LINE
  8
CutLine
  6
CONTINUOUS
 62
8
 10
1417.843988
 20
3445.536296
 11
1370.255813
 21
3485.384986
  0
LINE
  8
MountainLine
  6
CONTINUOUS
 62
5
 10
1253.913231
 20
3397.955692
 11
1249.014733
 21
3347.968442
  0
LINE
  8
MountainLine
  6
CONTINUOUS
 62
5
 10
1370.255813
 20
3485.384986
 11
1253.913231
 21
3397.955692
  0
LINE
  8
CutLine
  6
CONTINUOUS
 62
8
 10
1249.014733
 20
3347.968442
 11
1238.006722
 21
3293.646063
  0
LINE
  8
CutLine
  6
CONTINUOUS
 62
8
 10
1498.029176
 20
3509.458072
 11
1484.769924
 21
3501.082319
  0
LINE
  8
MountainLine
  6
CONTINUOUS
 62
5
 10
1492.780859
 20
3359.762482
 11
1498.029176
 21
3509.458072
  0
LINE
  8
CutLine
  6
CONTINUOUS
 62
8
 10
1683.240353
 20
3364.564149
 11
1682.558620
 21
3515.133248
  0
LINE
  8
CutLine
  6
CONTINUOUS
 62
8
 10
1682.558620
 20
3515.133248
 11
1582.590443
 21
3508.565197
  0
LINE
  8
MountainLine
  6
CONTINUOUS
 62
5
 10
1582.590443
 20
3508.565197
 11
1588.404556
 21
3360.720774
  0
LINE
  8
CutLine
  6
CONTINUOUS
 62
8
 10
1492.780859
 20
3359.762482
 11
1588.404556
 21
3360.720774
  0
LINE
  8
CutLine
  6
CONTINUOUS
 62
8
 10
1582.590443
 20
3508.565197
 11
1502.342911
 21
3510.207228
  0
LINE
  8
MountainLine
  6
CONTINUOUS
 62
5
 10
1502.342911
 20
3510.207228
 11
1492.780859
 21
3359.762482
  0
LINE
  8
MountainLine
  6
CONTINUOUS
 62
5
 10
1299.334009
 20
2867.166741
 11
1401.535595
 21
2740.910632
  0
LINE
  8
CutLine
  6
CONTINUOUS
 62
8
 10
1401.535595
 20
2740.910632
 11
1409.357436
 21
2837.356714
  0
LINE
  8
ValleyLine
  6
CONTINUOUS
 62
1
 10
1409.357436
 20
2837.356714
 11
1299.334009
 21
2867.166741
  0
LINE
  8
MountainLine
  6
CONTINUOUS
 62
5
 10
1299.334009
 20
2867.166741
 11
1307.264490
 21
2769.188444
  0
LINE
  8
CutLine
  6
CONTINUOUS
 62
8
 10
1307.264490
 20
2769.188444
 11
1401.535595
 21
2740.910632
  0
LINE
  8
MountainLine
  6
CONTINUOUS
 62
5
 10
1440.238122
 20
2930.479409
 11
1299.334009
 21
2867.166741
  0
LINE
  8
CutLine
  6
CONTINUOUS
 62
8
 10
1440.238122
 20
2930.479409
 11
1306.383083
 21
2961.840512
  0
LINE
  8
MountainLine
  6
CONTINUOUS
 62
5
 10
1306.383083
 20
2961.840512
 11
1299.334009
 21
2867.166741
  0
LINE
  8
MountainLine
  6
CONTINUOUS
 62
5
 10
1299.334009
 20
2867.166741
 11
1161.188644
 21
2798.538659
  0
LINE
  8
CutLine
  6
CONTINUOUS
 62
8
 10
1161.188644
 20
2798.538659
 11
1307.264490
 21
2769.188444
  0
LINE
  8
MountainLine
  6
CONTINUOUS
 62
5
 10
1118.746549
 20
2901.766124
 11
1161.188644
 21
2798.538659
  0
LINE
  8
CutLine
  6
CONTINUOUS
 62
8
 10
1131.368509
 20
2992.244071
 11
1118.746549
 21
2901.766124
  0
LINE
  8
CutLine
  6
CONTINUOUS
 62
8
 10
1299.334009
 20
2867.166741
 11
1292.772936
 21
2961.875583
  0
LINE
  8
MountainLine
  6
CONTINUOUS
 62
5
 10
1118.746549
 20
2901.766124
 11
961.575348
 21
2837.220647
  0
LINE
  8
MountainLine
  6
CONTINUOUS
 62
5
 10
961.575348
 20
2837.220647
 11
1161.188644
 21
2798.538659
  0
LINE
  8
CutLine
  6
CONTINUOUS
 62
8
 10
996.790727
 20
2923.215845
 11
961.575348
 21
2837.220647
  0
LINE
  8
ValleyLine
  6
CONTINUOUS
 62
1
 10
1118.746549
 20
2901.766124
 11
996.790727
 21
2923.215845
  0
LINE
  8
ValleyLine
  6
CONTINUOUS
 62
1
 10
996.790727
 20
2923.215845
 11
1126.565160
 21
2992.785035
  0
LINE
  8
CutLine
  6
CONTINUOUS
 62
8
 10
1126.565160
 20
2992.785035
 11
997.393586
 21
3018.634083
  0
LINE
  8
CutLine
  6
CONTINUOUS
 62
8
 10
997.393586
 20
3018.634083
 11
996.790727
 21
2923.215845
  0
LINE
  8
MountainLine
  6
CONTINUOUS
 62
5
 10
1118.746549
 20
2901.766124
 11
1126.565160
 21
2992.785035
  0
LINE
  8
MountainLine
  6
CONTINUOUS
 62
5
 10
1188.184393
 20
2667.009917
 11
1265.161486
 21
2588.317286
  0
LINE
  8
MountainLine
  6
CONTINUOUS
 62
5
 10
1265.161486
 20
2588.317286
 11
1259.492682
 21
2686.574808
  0
LINE
  8
MountainLine
  6
CONTINUOUS
 62
5
 10
1161.188644
 20
2798.538659
 11
1188.184393
 21
2667.009917
  0
LINE
  8
MountainLine
  6
CONTINUOUS
 62
5
 10
1259.492682
 20
2686.574808
 11
1161.188644
 21
2798.538659
  0
LINE
  8
ValleyLine
  6
CONTINUOUS
 62
1
 10
1161.188644
 20
2798.538659
 11
1167.823626
 21
2598.501451
  0
LINE
  8
MountainLine
  6
CONTINUOUS
 62
5
 10
1167.823626
 20
2598.501451
 11
1188.184393
 21
2667.009917
  0
LINE
  8
MountainLine
  6
CONTINUOUS
 62
5
 10
750.942088
 20
2554.104982
 11
797.212166
 21
2516.366714
  0
LINE
  8
MountainLine
  6
CONTINUOUS
 62
5
 10
797.212166
 20
2516.366714
 11
844.333642
 21
2539.872516
  0
LINE
  8
CutLine
  6
CONTINUOUS
 62
8
 10
1126.242549
 20
2533.780428
 11
1179.754717
 21
2382.710077
  0
LINE
  8
MountainLine
  6
CONTINUOUS
 62
5
 10
1179.754717
 20
2382.710077
 11
1242.850514
 21
2518.799444
  0
LINE
  8
MountainLine
  6
CONTINUOUS
 62
5
 10
1242.850514
 20
2518.799444
 11
1167.823626
 21
2598.501451
  0
LINE
  8
CutLine
  6
CONTINUOUS
 62
8
 10
1056.772474
 20
2411.012090
 11
1126.242549
 21
2533.780428
  0
LINE
  8
CutLine
  6
CONTINUOUS
 62
8
 10
961.575348
 20
2837.220647
 11
977.140167
 21
2785.050755
  0
LINE
  8
MountainLine
  6
CONTINUOUS
 62
5
 10
881.297597
 20
2691.784564
 11
977.140167
 21
2542.055278
  0
LINE
  8
MountainLine
  6
CONTINUOUS
 62
5
 10
977.140167
 20
2785.050755
 11
881.297597
 21
2691.784564
  0
LINE
  8
ValleyLine
  6
CONTINUOUS
 62
1
 10
881.297597
 20
2691.784564
 11
911.754670
 21
2513.194533
  0
LINE
  8
CutLine
  6
CONTINUOUS
 62
8
 10
911.754670
 20
2513.194533
 11
977.140167
 21
2542.055278
  0
LINE
  8
CutLine
  6
CONTINUOUS
 62
8
 10
844.333642
 20
2539.872516
 11
911.754670
 21
2513.194533
  0
LINE
  8
MountainLine
  6
CONTINUOUS
 62
5
 10
881.297597
 20
2691.784564
 11
756.137538
 21
2629.091344
  0
LINE
  8
MountainLine
  6
CONTINUOUS
 62
5
 10
756.137538
 20
2629.091344
 11
750.942088
 21
2554.104982
  0
LINE
  8
ValleyLine
  6
CONTINUOUS
 62
1
 10
1384.191842
 20
2584.749071
 11
1464.520923
 21
2531.158267
  0
LINE
  8
MountainLine
  6
CONTINUOUS
 62
5
 10
1464.520923
 20
2531.158267
 11
1500.544531
 21
2601.587309
  0
LINE
  8
ValleyLine
  6
CONTINUOUS
 62
1
 10
1500.544531
 20
2601.587309
 11
1384.191842
 21
2584.749071
  0
LINE
  8
MountainLine
  6
CONTINUOUS
 62
5
 10
1249.789272
 20
2530.693003
 11
1328.945514
 21
2476.542049
  0
LINE
  8
ValleyLine
  6
CONTINUOUS
 62
1
 10
1328.945514
 20
2476.542049
 11
1464.520923
 21
2531.158267
  0
LINE
  8
MountainLine
  6
CONTINUOUS
 62
5
 10
1328.945514
 20
2476.542049
 11
1423.109812
 21
2450.933357
  0
LINE
  8
CutLine
  6
CONTINUOUS
 62
8
 10
1423.109812
 20
2450.933357
 11
1464.520923
 21
2531.158267
  0
LINE
  8
ValleyLine
  6
CONTINUOUS
 62
1
 10
1384.191842
 20
2584.749071
 11
1299.434470
 21
2628.247081
  0
LINE
  8
CutLine
  6
CONTINUOUS
 62
8
 10
1299.434470
 20
2628.247081
 11
1249.789272
 21
2530.693003
  0
LINE
  8
MountainLine
  6
CONTINUOUS
 62
5
 10
1328.945514
 20
2476.542049
 11
1396.878334
 21
2390.616071
  0
LINE
  8
CutLine
  6
CONTINUOUS
 62
8
 10
1396.878334
 20
2390.616071
 11
1423.109812
 21
2450.933357
  0
LINE
  8
MountainLine
  6
CONTINUOUS
 62
5
 10
1328.945514
 20
2476.542049
 11
1179.754717
 21
2382.710077
  0
LINE
  8
MountainLine
  6
CONTINUOUS
 62
5
 10
1179.754717
 20
2382.710077
 11
1268.466284
 21
2337.761503
  0
LINE
  8
ValleyLine
  6
CONTINUOUS
 62
1
 10
1268.466284
 20
2337.761503
 11
1328.945514
 21
2476.542049
  0
LINE
  8
MountainLine
  6
CONTINUOUS
 62
5
 10
1268.466284
 20
2337.761503
 11
1396.878334
 21
2390.616071
  0
LINE
  8
CutLine
  6
CONTINUOUS
 62
8
 10
1328.945514
 20
2476.542049
 11
1242.850514
 21
2518.799444
  0
LINE
  8
MountainLine
  6
CONTINUOUS
 62
5
 10
1268.466284
 20
2337.761503
 11
1340.711146
 21
2299.525534
  0
LINE
  8
ValleyLine
  6
CONTINUOUS
 62
1
 10
1340.711146
 20
2299.525534
 11
1396.878334
 21
2390.616071
  0
LINE
  8
MountainLine
  6
CONTINUOUS
 62
5
 10
1360.836723
 20
2295.352014
 11
1396.878334
 21
2390.616071
  0
LINE
  8
ValleyLine
  6
CONTINUOUS
 62
1
 10
819.619004
 20
2767.283183
 11
977.140167
 21
2785.050755
  0
LINE
  8
CutLine
  6
CONTINUOUS
 62
8
 10
977.140167
 20
2785.050755
 11
931.108167
 21
2872.761131
  0
LINE
  8
MountainLine
  6
CONTINUOUS
 62
5
 10
931.108167
 20
2872.761131
 11
819.619004
 21
2767.283183
  0
LINE
  8
ValleyLine
  6
CONTINUOUS
 62
1
 10
819.619004
 20
2767.283183
 11
881.297597
 21
2691.784564
  0
LINE
  8
ValleyLine
  6
CONTINUOUS
 62
1
 10
1384.191842
 20
2584.749071
 11
1332.150877
 21
2691.789252
  0
LINE
  8
CutLine
  6
CONTINUOUS
 62
8
 10
1332.150877
 20
2691.789252
 11
1299.434470
 21
2628.247081
  0
LINE
  8
CutLine
  6
CONTINUOUS
 62
8
 10
1384.191842
 20
2584.749071
 11
1436.182715
 21
2626.415575
  0
LINE
  8
ValleyLine
  6
CONTINUOUS
 62
1
 10
1436.182715
 20
2626.415575
 11
1332.150877
 21
2691.789252
  0
LINE
  8
CutLine
  6
CONTINUOUS
 62
8
 10
1437.666011
 20
2723.166946
 11
1332.150877
 21
2691.789252
  0
LINE
  8
MountainLine
  6
CONTINUOUS
 62
5
 10
1436.182715
 20
2626.415575
 11
1437.666011
 21
2723.166946
  0
LINE
  8
MountainLine
  6
CONTINUOUS
 62
5
 10
1484.769924
 20
3501.082319
 11
1486.941491
 21
3516.614392
  0
LINE
  8
CutLine
  6
CONTINUOUS
 62
8
 10
1486.941491
 20
3516.614392
 11
1485.251279
 21
3520.653294
  0
LINE
  8
ValleyLine
  6
CONTINUOUS
 62
1
 10
1438.825191
 20
3586.128336
 11
1484.769924
 21
3501.082319
  0
LINE
  8
MountainLine
  6
CONTINUOUS
 62
5
 10
1485.251279
 20
3520.653294
 11
1438.825191
 21
3586.128336
  0
LINE
  8
ValleyLine
  6
CONTINUOUS
 62
1
 10
1302.391780
 20
3629.065880
 11
1438.825191
 21
3586.128336
  0
LINE
  8
MountainLine
  6
CONTINUOUS
 62
5
 10
1438.825191
 20
3586.128336
 11
1386.909930
 21
3671.811364
  0
LINE
  8
MountainLine
  6
CONTINUOUS
 62
5
 10
1386.909930
 20
3671.811364
 11
1302.391780
 21
3629.065880
  0
LINE
  8
CutLine
  6
CONTINUOUS
 62
8
 10
1302.391780
 20
3629.065880
 11
1362.719252
 21
3537.284010
  0
LINE
  8
MountainLine
  6
CONTINUOUS
 62
5
 10
1362.719252
 20
3537.284010
 11
1438.825191
 21
3586.128336
  0
LINE
  8
ValleyLine
  6
CONTINUOUS
 62
1
 10
1362.719252
 20
3537.284010
 11
1417.843988
 21
3445.536296
  0
LINE
  8
ValleyLine
  6
CONTINUOUS
 62
1
 10
654.400234
 20
2490.393849
 11
559.433717
 21
2561.225814
  0
LINE
  8
CutLine
  6
CONTINUOUS
 62
8
 10
559.433717
 20
2561.225814
 11
558.771529
 21
2496.082514
  0
LINE
  8
CutLine
  6
CONTINUOUS
 62
8
 10
558.771529
 20
2496.082514
 11
654.400234
 21
2490.393849
  0
LINE
  8
MountainLine
  6
CONTINUOUS
 62
5
 10
654.665536
 20
2559.281967
 11
559.433717
 21
2561.225814
  0
LINE
  8
MountainLine
  6
CONTINUOUS
 62
5
 10
654.400234
 20
2490.393849
 11
654.665536
 21
2559.281967
  0
LINE
  8
ValleyLine
  6
CONTINUOUS
 62
1
 10
654.400234
 20
2490.393849
 11
750.942088
 21
2554.104982
  0
LINE
  8
MountainLine
  6
CONTINUOUS
 62
5
 10
750.942088
 20
2554.104982
 11
654.665536
 21
2559.281967
  0
LINE
  8
CutLine
  6
CONTINUOUS
 62
8
 10
654.400234
 20
2490.393849
 11
749.290185
 21
2494.419404
  0
LINE
  8
CutLine
  6
CONTINUOUS
 62
8
 10
749.290185
 20
2494.419404
 11
750.942088
 21
2554.104982
  0
LINE
  8
MountainLine
  6
CONTINUOUS
 62
5
 10
756.137538
 20
2629.091344
 11
662.051603
 21
2640.830689
  0
LINE
  8
MountainLine
  6
CONTINUOUS
 62
5
 10
662.051603
 20
2640.830689
 11
560.248373
 21
2571.862793
  0
LINE
  8
CutLine
  6
CONTINUOUS
 62
8
 10
560.248373
 20
2571.862793
 11
654.665536
 21
2559.281967
  0
LINE
  8
MountainLine
  6
CONTINUOUS
 62
5
 10
662.051603
 20
2640.830689
 11
565.704445
 21
2644.874241
  0
LINE
  8
CutLine
  6
CONTINUOUS
 62
8
 10
565.704445
 20
2644.874241
 11
560.248373
 21
2571.862793
  0
LINE
  8
CutLine
  6
CONTINUOUS
 62
8
 10
756.866563
 20
2640.516365
 11
761.119160
 21
2780.435611
  0
LINE
  8
CutLine
  6
CONTINUOUS
 62
8
 10
761.119160
 20
2780.435611
 11
663.741236
 21
2785.107896
  0
LINE
  8
CutLine
  6
CONTINUOUS
 62
8
 10
662.051603
 20
2640.830689
 11
756.866563
 21
2640.516365
  0
LINE
  8
MountainLine
  6
CONTINUOUS
 62
5
 10
663.741236
 20
2785.107896
 11
662.051603
 21
2640.830689
  0
LINE
  8
ValleyLine
  6
CONTINUOUS
 62
1
 10
663.741236
 20
2785.107896
 11
572.184058
 21
2916.595771
  0
LINE
  8
MountainLine
  6
CONTINUOUS
 62
5
 10
572.184058
 20
2916.595771
 11
566.574611
 21
2798.215268
  0
LINE
  8
ValleyLine
  6
CONTINUOUS
 62
1
 10
566.574611
 20
2798.215268
 11
663.741236
 21
2785.107896
  0
LINE
  8
MountainLine
  6
CONTINUOUS
 62
5
 10
566.574611
 20
2798.215268
 11
565.704445
 21
2644.874241
  0
LINE
  8
ValleyLine
  6
CONTINUOUS
 62
1
 10
669.040810
 20
2938.494158
 11
572.184058
 21
2916.595771
  0
LINE
  8
CutLine
  6
CONTINUOUS
 62
8
 10
663.741236
 20
2785.107896
 11
669.040810
 21
2938.494158
  0
LINE
  8
MountainLine
  6
CONTINUOUS
 62
5
 10
669.040810
 20
2938.494158
 11
577.199781
 21
2964.382940
  0
LINE
  8
MountainLine
  6
CONTINUOUS
 62
5
 10
577.199781
 20
2964.382940
 11
572.184058
 21
2916.595771
  0
LINE
  8
CutLine
  6
CONTINUOUS
 62
8
 10
977.140167
 20
2542.055278
 11
1056.772474
 21
2411.012090
  0
LINE
  8
MountainLine
  6
CONTINUOUS
 62
5
 10
1565.542636
 20
1022.161892
 11
1466.329420
 21
1001.778740
  0
LINE
  8
ValleyLine
  6
CONTINUOUS
 62
1
 10
1466.329420
 20
1001.778740
 11
1451.842589
 21
957.727267
  0
LINE
  8
ValleyLine
  6
CONTINUOUS
 62
1
 10
1451.842589
 20
957.727267
 11
1565.542636
 21
1022.161892
  0
LINE
  8
MountainLine
  6
CONTINUOUS
 62
5
 10
1451.842589
 20
957.727267
 11
1538.635407
 21
966.228419
  0
LINE
  8
MountainLine
  6
CONTINUOUS
 62
5
 10
1538.635407
 20
966.228419
 11
1565.542636
 21
1022.161892
  0
LINE
  8
ValleyLine
  6
CONTINUOUS
 62
1
 10
1499.750202
 20
1261.700624
 11
1566.586682
 21
1129.191278
  0
LINE
  8
ValleyLine
  6
CONTINUOUS
 62
1
 10
1566.586682
 20
1129.191278
 11
1582.855278
 21
1237.812862
  0
LINE
  8
CutLine
  6
CONTINUOUS
 62
8
 10
1582.855278
 20
1237.812862
 11
1499.750202
 21
1261.700624
  0
LINE
  8
ValleyLine
  6
CONTINUOUS
 62
1
 10
1499.750202
 20
1261.700624
 11
1466.329420
 21
1132.400929
  0
LINE
  8
MountainLine
  6
CONTINUOUS
 62
5
 10
1466.329420
 20
1132.400929
 11
1566.586682
 21
1129.191278
  0
LINE
  8
CutLine
  6
CONTINUOUS
 62
8
 10
1565.542636
 20
1022.161892
 11
1566.586682
 21
1129.191278
  0
LINE
  8
CutLine
  6
CONTINUOUS
 62
8
 10
1466.329420
 20
1132.400929
 11
1466.329420
 21
1001.778740
  0
LINE
  8
CutLine
  6
CONTINUOUS
 62
8
 10
1499.750202
 20
1261.700624
 11
1449.008741
 21
1264.052104
  0
LINE
  8
ValleyLine
  6
CONTINUOUS
 62
1
 10
1449.008741
 20
1264.052104
 11
1466.329420
 21
1132.400929
  0
LINE
  8
MountainLine
  6
CONTINUOUS
 62
5
 10
1586.060824
 20
938.238486
 11
1445.000000
 21
938.238486
  0
LINE
  8
CutLine
  6
CONTINUOUS
 62
8
 10
1445.000000
 20
938.238486
 11
1447.427268
 21
843.198941
  0
LINE
  8
ValleyLine
  6
CONTINUOUS
 62
1
 10
1576.087562
 20
843.023703
 11
1586.060824
 21
938.238486
  0
LINE
  8
MountainLine
  6
CONTINUOUS
 62
5
 10
1447.427268
 20
843.198941
 11
1576.087562
 21
843.023703
  0
LINE
  8
ValleyLine
  6
CONTINUOUS
 62
1
 10
1576.087562
 20
843.023703
 11
1457.263593
 21
747.384119
  0
LINE
  8
MountainLine
  6
CONTINUOUS
 62
5
 10
1457.263593
 20
747.384119
 11
1591.337101
 21
745.459893
  0
LINE
  8
ValleyLine
  6
CONTINUOUS
 62
1
 10
1591.337101
 20
745.459893
 11
1576.087562
 21
843.023703
  0
LINE
  8
CutLine
  6
CONTINUOUS
 62
8
 10
1447.427268
 20
843.198941
 11
1457.263593
 21
747.384119
  0
LINE
  8
MountainLine
  6
CONTINUOUS
 62
5
 10
1747.261185
 20
3536.363232
 11
1733.137728
 21
3585.156196
  0
LINE
  8
ValleyLine
  6
CONTINUOUS
 62
1
 10
1733.137728
 20
3585.156196
 11
1697.709164
 21
3522.818875
  0
LINE
  8
ValleyLine
  6
CONTINUOUS
 62
1
 10
1697.709164
 20
3522.818875
 11
1747.261185
 21
3536.363232
  0
LINE
  8
ValleyLine
  6
CONTINUOUS
 62
1
 10
1697.709164
 20
3638.651861
 11
1733.137728
 21
3585.156196
  0
LINE
  8
MountainLine
  6
CONTINUOUS
 62
5
 10
1733.137728
 20
3585.156196
 11
1768.576531
 21
3664.030590
  0
LINE
  8
MountainLine
  6
CONTINUOUS
 62
5
 10
1768.576531
 20
3664.030590
 11
1697.709164
 21
3638.651861
  0
LINE
  8
MountainLine
  6
CONTINUOUS
 62
5
 10
1697.709164
 20
3638.651861
 11
1697.709164
 21
3522.818875
  0
LINE
  8
MountainLine
  6
CONTINUOUS
 62
5
 10
1235.969512
 20
1007.654550
 11
1144.822201
 21
1103.783955
  0
LINE
  8
ValleyLine
  6
CONTINUOUS
 62
1
 10
1144.822201
 20
1103.783955
 11
1144.822201
 21
848.259734
  0
LINE
  8
MountainLine
  6
CONTINUOUS
 62
5
 10
1144.822201
 20
848.259734
 11
1235.969512
 21
1007.654550
  0
LINE
  8
CutLine
  6
CONTINUOUS
 62
8
 10
1200.500794
 20
868.123058
 11
1235.969512
 21
1007.654550
  0
LINE
  8
MountainLine
  6
CONTINUOUS
 62
5
 10
1144.822201
 20
848.259734
 11
1200.500794
 21
868.123058
  0
LINE
  8
MountainLine
  6
CONTINUOUS
 62
5
 10
1233.583839
 20
1107.822261
 11
1235.969512
 21
1007.654550
  0
LINE
  8
MountainLine
  6
CONTINUOUS
 62
5
 10
1235.969512
 20
1007.654550
 11
1284.217163
 21
1017.553068
  0
LINE
  8
ValleyLine
  6
CONTINUOUS
 62
1
 10
1284.217163
 20
1017.553068
 11
1233.583839
 21
1107.822261
  0
LINE
  8
MountainLine
  6
CONTINUOUS
 62
5
 10
1174.251972
 20
1195.452941
 11
1147.402282
 21
1149.621882
  0
LINE
  8
MountainLine
  6
CONTINUOUS
 62
5
 10
1147.402282
 20
1149.621882
 11
1233.583839
 21
1107.822261
  0
LINE
  8
ValleyLine
  6
CONTINUOUS
 62
1
 10
1233.583839
 20
1107.822261
 11
1174.251972
 21
1195.452941
  0
LINE
  8
MountainLine
  6
CONTINUOUS
 62
5
 10
1235.969512
 20
1007.654550
 11
1147.402282
 21
1149.621882
  0
LINE
  8
CutLine
  6
CONTINUOUS
 62
8
 10
1147.402282
 20
1149.621882
 11
1144.822201
 21
1103.783955
  0
LINE
  8
MountainLine
  6
CONTINUOUS
 62
5
 10
1129.098200
 20
1264.052104
 11
1094.879192
 21
1222.722689
  0
LINE
  8
ValleyLine
  6
CONTINUOUS
 62
1
 10
1174.251972
 20
1195.452941
 11
1129.098200
 21
1264.052104
  0
LINE
  8
CutLine
  6
CONTINUOUS
 62
8
 10
1094.879192
 20
1222.722689
 11
1147.402282
 21
1149.621882
  0
LINE
  8
MountainLine
  6
CONTINUOUS
 62
5
 10
1083.429178
 20
754.764080
 11
1106.642267
 21
709.850715
  0
LINE
  8
ValleyLine
  6
CONTINUOUS
 62
1
 10
1106.642267
 20
709.850715
 11
1163.767168
 21
757.435589
  0
LINE
  8
MountainLine
  6
CONTINUOUS
 62
5
 10
1163.767168
 20
757.435589
 11
1083.429178
 21
754.764080
  0
LINE
  8
CutLine
  6
CONTINUOUS
 62
8
 10
1144.822201
 20
848.259734
 11
1056.871173
 21
799.161960
  0
LINE
  8
MountainLine
  6
CONTINUOUS
 62
5
 10
1056.871173
 20
799.161960
 11
1083.429178
 21
754.764080
  0
LINE
  8
MountainLine
  6
CONTINUOUS
 62
5
 10
1083.429178
 20
754.764080
 11
1144.822201
 21
848.259734
  0
LINE
  8
CutLine
  6
CONTINUOUS
 62
8
 10
1056.871173
 20
799.161960
 11
958.009873
 21
778.234737
  0
LINE
  8
MountainLine
  6
CONTINUOUS
 62
5
 10
984.564062
 20
738.321494
 11
1083.429178
 21
754.764080
  0
LINE
  8
MountainLine
  6
CONTINUOUS
 62
5
 10
958.009873
 20
778.234737
 11
984.564062
 21
738.321494
  0
LINE
  8
MountainLine
  6
CONTINUOUS
 62
5
 10
1244.265231
 20
847.483405
 11
1200.500794
 21
868.123058
  0
LINE
  8
MountainLine
  6
CONTINUOUS
 62
5
 10
1200.500794
 20
868.123058
 11
1163.767168
 21
757.435589
  0
LINE
  8
ValleyLine
  6
CONTINUOUS
 62
1
 10
1163.767168
 20
757.435589
 11
1244.265231
 21
847.483405
  0
LINE
  8
MountainLine
  6
CONTINUOUS
 62
5
 10
1006.154774
 20
690.941386
 11
1041.815311
 21
664.136108
  0
LINE
  8
ValleyLine
  6
CONTINUOUS
 62
1
 10
1041.815311
 20
664.136108
 11
1106.642267
 21
709.850715
  0
LINE
  8
CutLine
  6
CONTINUOUS
 62
8
 10
1083.429178
 20
754.764080
 11
1006.154774
 21
690.941386
  0
LINE
  8
MountainLine
  6
CONTINUOUS
 62
5
 10
855.720008
 20
783.514983
 11
958.009873
 21
778.234737
  0
LINE
  8
CutLine
  6
CONTINUOUS
 62
8
 10
958.009873
 20
778.234737
 11
804.105213
 21
982.164920
  0
LINE
  8
CutLine
  6
CONTINUOUS
 62
8
 10
782.523427
 20
873.921103
 11
855.720008
 21
783.514983
  0
LINE
  8
MountainLine
  6
CONTINUOUS
 62
5
 10
804.105213
 20
982.164920
 11
782.523427
 21
873.921103
  0
LINE
  8
ValleyLine
  6
CONTINUOUS
 62
1
 10
729.640894
 20
955.193398
 11
738.300051
 21
830.739456
  0
LINE
  8
CutLine
  6
CONTINUOUS
 62
8
 10
738.300051
 20
830.739456
 11
782.523427
 21
873.921103
  0
LINE
  8
MountainLine
  6
CONTINUOUS
 62
5
 10
782.523427
 20
873.921103
 11
729.640894
 21
955.193398
  0
LINE
  8
CutLine
  6
CONTINUOUS
 62
8
 10
804.105213
 20
982.164920
 11
769.118743
 21
1006.182450
  0
LINE
  8
MountainLine
  6
CONTINUOUS
 62
5
 10
769.118743
 20
1006.182450
 11
782.523427
 21
873.921103
  0
LINE
  8
MountainLine
  6
CONTINUOUS
 62
5
 10
769.118743
 20
1006.182450
 11
729.640894
 21
955.193398
  0
LINE
  8
CutLine
  6
CONTINUOUS
 62
8
 10
855.720008
 20
783.514983
 11
872.402481
 21
729.824999
  0
LINE
  8
MountainLine
  6
CONTINUOUS
 62
5
 10
872.402481
 20
729.824999
 11
984.564062
 21
738.321494
  0
LINE
  8
MountainLine
  6
CONTINUOUS
 62
5
 10
984.564062
 20
738.321494
 11
855.720008
 21
783.514983
  0
LINE
  8
ValleyLine
  6
CONTINUOUS
 62
1
 10
872.402481
 20
729.824999
 11
982.956816
 21
693.738834
  0
LINE
  8
CutLine
  6
CONTINUOUS
 62
8
 10
982.956816
 20
693.738834
 11
984.564062
 21
738.321494
  0
LINE
  8
MountainLine
  6
CONTINUOUS
 62
5
 10
60.270388
 20
1316.094817
 11
10.000000
 21
1394.249696
  0
LINE
  8
ValleyLine
  6
CONTINUOUS
 62
1
 10
10.000000
 20
1394.249696
 11
10.000000
 21
1295.193878
  0
LINE
  8
MountainLine
  6
CONTINUOUS
 62
5
 10
10.000000
 20
1295.193878
 11
60.270388
 21
1316.094817
  0
LINE
  8
MountainLine
  6
CONTINUOUS
 62
5
 10
1783.354577
 20
1149.253735
 11
1756.933769
 21
1051.514670
  0
LINE
  8
MountainLine
  6
CONTINUOUS
 62
5
 10
1756.933769
 20
1051.514670
 11
1811.426376
 21
1039.802759
  0
LINE
  8
ValleyLine
  6
CONTINUOUS
 62
1
 10
1811.426376
 20
1039.802759
 11
1783.354577
 21
1149.253735
  0
LINE
  8
MountainLine
  6
CONTINUOUS
 62
5
 10
1753.604804
 20
1245.144183
 11
1783.354577
 21
1149.253735
  0
LINE
  8
ValleyLine
  6
CONTINUOUS
 62
1
 10
1783.354577
 20
1149.253735
 11
1823.468597
 21
1260.219205
  0
LINE
  8
MountainLine
  6
CONTINUOUS
 62
5
 10
1823.468597
 20
1260.219205
 11
1753.604804
 21
1245.144183
  0
LINE
  8
ValleyLine
  6
CONTINUOUS
 62
1
 10
1783.354577
 20
1149.253735
 11
1682.160006
 21
1050.666860
  0
LINE
  8
CutLine
  6
CONTINUOUS
 62
8
 10
1682.160006
 20
1050.666860
 11
1756.933769
 21
1051.514670
  0
LINE
  8
ValleyLine
  6
CONTINUOUS
 62
1
 10
1648.359721
 20
1149.253735
 11
1682.160006
 21
1050.666860
  0
LINE
  8
MountainLine
  6
CONTINUOUS
 62
5
 10
1783.354577
 20
1149.253735
 11
1648.359721
 21
1149.253735
  0
LINE
  8
MountainLine
  6
CONTINUOUS
 62
5
 10
1753.604804
 20
1245.144183
 11
1648.359721
 21
1149.253735
  0
LINE
  8
ValleyLine
  6
CONTINUOUS
 62
1
 10
1681.167947
 20
1248.339733
 11
1648.359721
 21
1149.253735
  0
LINE
  8
MountainLine
  6
CONTINUOUS
 62
5
 10
1753.604804
 20
1245.144183
 11
1681.167947
 21
1248.339733
  0
LINE
  8
MountainLine
  6
CONTINUOUS
 62
5
 10
1648.359721
 20
1149.253735
 11
1629.774088
 21
1055.276162
  0
LINE
  8
MountainLine
  6
CONTINUOUS
 62
5
 10
1629.774088
 20
1055.276162
 11
1682.160006
 21
1050.666860
  0
LINE
  8
MountainLine
  6
CONTINUOUS
 62
5
 10
1628.867383
 20
1242.207254
 11
1648.359721
 21
1149.253735
  0
LINE
  8
CutLine
  6
CONTINUOUS
 62
8
 10
1681.167947
 20
1248.339733
 11
1628.867383
 21
1242.207254
  0
LINE
  8
MountainLine
  6
CONTINUOUS
 62
5
 10
164.601015
 20
8.112074
 11
333.715698
 21
481.635687
  0
LINE
  8
MountainLine
  6
CONTINUOUS
 62
5
 10
333.715698
 20
481.635687
 11
164.601015
 21
484.518116
  0
LINE
  8
CutLine
  6
CONTINUOUS
 62
8
 10
164.601015
 20
484.518116
 11
129.580853
 21
457.486296
  0
LINE
  8
CutLine
  6
CONTINUOUS
 62
8
 10
129.580853
 20
457.486296
 11
32.512952
 21
354.957485
  0
LINE
  8
CutLine
  6
CONTINUOUS
 62
8
 10
32.512952
 20
354.957485
 11
5.000000
 21
251.001262
  0
LINE
  8
CutLine
  6
CONTINUOUS
 62
8
 10
5.000000
 20
251.001262
 11
52.550197
 21
90.771832
  0
LINE
  8
CutLine
  6
CONTINUOUS
 62
8
 10
52.550197
 20
90.771832
 11
164.601015
 21
8.112074
  0
LINE
  8
CutLine
  6
CONTINUOUS
 62
8
 10
298.140069
 20
0.000000
 11
429.869737
 21
68.398510
  0
LINE
  8
CutLine
  6
CONTINUOUS
 62
8
 10
429.869737
 20
68.398510
 11
496.294270
 21
209.931293
  0
LINE
  8
MountainLine
  6
CONTINUOUS
 62
5
 10
496.294270
 20
209.931293
 11
427.468782
 21
416.415465
  0
LINE
  8
CutLine
  6
CONTINUOUS
 62
8
 10
427.468782
 20
416.415465
 11
333.715698
 21
481.635687
  0
LINE
  8
CutLine
  6
CONTINUOUS
 62
8
 10
164.601015
 20
8.112074
 11
298.140069
 21
0.000000
  0
LINE
  8
MountainLine
  6
CONTINUOUS
 62
5
 10
496.294270
 20
209.931293
 11
490.045559
 21
289.225320
  0
LINE
  8
MountainLine
  6
CONTINUOUS
 62
5
 10
490.045559
 20
289.225320
 11
427.468782
 21
416.415465
  0
LINE
  8
MountainLine
  6
CONTINUOUS
 62
5
 10
529.232030
 20
926.048412
 11
487.858978
 21
1005.990101
  0
LINE
  8
ValleyLine
  6
CONTINUOUS
 62
1
 10
487.858978
 20
1005.990101
 11
501.247960
 21
889.652477
  0
LINE
  8
MountainLine
  6
CONTINUOUS
 62
5
 10
501.247960
 20
889.652477
 11
529.232030
 21
926.048412
  0
LINE
  8
CutLine
  6
CONTINUOUS
 62
8
 10
451.373293
 20
977.466512
 11
501.247960
 21
889.652477
  0
LINE
  8
MountainLine
  6
CONTINUOUS
 62
5
 10
487.858978
 20
1005.990101
 11
451.373293
 21
977.466512
  0
LINE
  8
CutLine
  6
CONTINUOUS
 62
8
 10
235.761213
 20
509.948493
 11
164.601015
 21
484.518116
  0
LINE
  8
MountainLine
  6
CONTINUOUS
 62
5
 10
333.715698
 20
481.635687
 11
235.761213
 21
509.948493
  0
LINE
  8
ValleyLine
  6
CONTINUOUS
 62
1
 10
282.064249
 20
1170.913113
 11
168.623854
 21
1153.224449
  0
LINE
  8
MountainLine
  6
CONTINUOUS
 62
5
 10
168.623854
 20
1153.224449
 11
209.439173
 21
1114.558844
  0
LINE
  8
MountainLine
  6
CONTINUOUS
 62
5
 10
209.439173
 20
1114.558844
 11
282.064249
 21
1170.913113
  0
LINE
  8
MountainLine
  6
CONTINUOUS
 62
5
 10
325.138657
 20
1126.585279
 11
282.064249
 21
1170.913113
  0
LINE
  8
MountainLine
  6
CONTINUOUS
 62
5
 10
209.439173
 20
1114.558844
 11
325.138657
 21
1126.585279
  0
LINE
  8
ValleyLine
  6
CONTINUOUS
 62
1
 10
323.167641
 20
570.322376
 11
441.472134
 21
519.475727
  0
LINE
  8
MountainLine
  6
CONTINUOUS
 62
5
 10
441.472134
 20
519.475727
 11
394.325200
 21
591.867128
  0
LINE
  8
CutLine
  6
CONTINUOUS
 62
8
 10
394.325200
 20
591.867128
 11
323.167641
 21
570.322376
  0
LINE
  8
MountainLine
  6
CONTINUOUS
 62
5
 10
323.167641
 20
570.322376
 11
333.715698
 21
481.635687
  0
LINE
  8
MountainLine
  6
CONTINUOUS
 62
5
 10
333.715698
 20
481.635687
 11
441.472134
 21
519.475727
  0
LINE
  8
MountainLine
  6
CONTINUOUS
 62
5
 10
235.761213
 20
509.948493
 11
323.167641
 21
570.322376
  0
LINE
  8
CutLine
  6
CONTINUOUS
 62
8
 10
323.167641
 20
570.322376
 11
243.868632
 21
572.329077
  0
LINE
  8
MountainLine
  6
CONTINUOUS
 62
5
 10
243.868632
 20
572.329077
 11
235.761213
 21
509.948493
  0
LINE
  8
CutLine
  6
CONTINUOUS
 62
8
 10
441.472134
 20
519.475727
 11
548.872106
 21
611.987521
  0
LINE
  8
MountainLine
  6
CONTINUOUS
 62
5
 10
548.872106
 20
611.987521
 11
486.869617
 21
669.482063
  0
LINE
  8
CutLine
  6
CONTINUOUS
 62
8
 10
486.869617
 20
669.482063
 11
394.325200
 21
591.867128
  0
LINE
  8
MountainLine
  6
CONTINUOUS
 62
5
 10
486.869617
 20
669.482063
 11
514.979549
 21
805.160194
  0
LINE
  8
MountainLine
  6
CONTINUOUS
 62
5
 10
514.979549
 20
805.160194
 11
440.170949
 21
682.153118
  0
LINE
  8
CutLine
  6
CONTINUOUS
 62
8
 10
440.170949
 20
682.153118
 11
486.869617
 21
669.482063
  0
LINE
  8
ValleyLine
  6
CONTINUOUS
 62
1
 10
486.869617
 20
669.482063
 11
547.918852
 21
768.543001
  0
LINE
  8
CutLine
  6
CONTINUOUS
 62
8
 10
547.918852
 20
768.543001
 11
514.979549
 21
805.160194
  0
LINE
  8
MountainLine
  6
CONTINUOUS
 62
5
 10
654.799133
 20
817.790490
 11
547.918852
 21
768.543001
  0
LINE
  8
MountainLine
  6
CONTINUOUS
 62
5
 10
547.918852
 20
768.543001
 11
602.988736
 21
670.279711
  0
LINE
  8
MountainLine
  6
CONTINUOUS
 62
5
 10
602.988736
 20
670.279711
 11
654.799133
 21
817.790490
  0
LINE
  8
MountainLine
  6
CONTINUOUS
 62
5
 10
654.799133
 20
817.790490
 11
566.348165
 21
870.389067
  0
LINE
  8
CutLine
  6
CONTINUOUS
 62
8
 10
566.348165
 20
870.389067
 11
547.918852
 21
768.543001
  0
LINE
  8
MountainLine
  6
CONTINUOUS
 62
5
 10
639.979395
 20
965.477446
 11
566.348165
 21
870.389067
  0
LINE
  8
MountainLine
  6
CONTINUOUS
 62
5
 10
654.799133
 20
817.790490
 11
639.979395
 21
965.477446
  0
LINE
  8
MountainLine
  6
CONTINUOUS
 62
5
 10
639.979395
 20
965.477446
 11
550.417273
 21
975.010351
  0
LINE
  8
CutLine
  6
CONTINUOUS
 62
8
 10
550.417273
 20
975.010351
 11
566.348165
 21
870.389067
  0
LINE
  8
ValleyLine
  6
CONTINUOUS
 62
1
 10
548.872106
 20
611.987521
 11
547.918852
 21
768.543001
  0
LINE
  8
CutLine
  6
CONTINUOUS
 62
8
 10
548.872106
 20
611.987521
 11
602.988736
 21
670.279711
  0
LINE
  8
MountainLine
  6
CONTINUOUS
 62
5
 10
639.979395
 20
965.477446
 11
594.978073
 21
1091.466993
  0
LINE
  8
MountainLine
  6
CONTINUOUS
 62
5
 10
594.978073
 20
1091.466993
 11
517.921926
 21
1050.434225
  0
LINE
  8
CutLine
  6
CONTINUOUS
 62
8
 10
517.921926
 20
1050.434225
 11
550.417273
 21
975.010351
  0
LINE
  8
MountainLine
  6
CONTINUOUS
 62
5
 10
413.054266
 20
1072.874735
 11
517.921926
 21
1050.434225
  0
LINE
  8
ValleyLine
  6
CONTINUOUS
 62
1
 10
517.921926
 20
1050.434225
 11
401.949166
 21
1136.396863
  0
LINE
  8
CutLine
  6
CONTINUOUS
 62
8
 10
401.949166
 20
1136.396863
 11
413.054266
 21
1072.874735
  0
LINE
  8
MountainLine
  6
CONTINUOUS
 62
5
 10
413.054266
 20
1072.874735
 11
487.858978
 21
1005.990101
  0
LINE
  8
CutLine
  6
CONTINUOUS
 62
8
 10
487.858978
 20
1005.990101
 11
517.921926
 21
1050.434225
  0
LINE
  8
ValleyLine
  6
CONTINUOUS
 62
1
 10
594.978073
 20
1091.466993
 11
401.949166
 21
1136.396863
  0
LINE
  8
MountainLine
  6
CONTINUOUS
 62
5
 10
594.978073
 20
1091.466993
 11
495.742588
 21
1189.141656
  0
LINE
  8
MountainLine
  6
CONTINUOUS
 62
5
 10
495.742588
 20
1189.141656
 11
401.949166
 21
1136.396863
  0
LINE
  8
MountainLine
  6
CONTINUOUS
 62
5
 10
97.494314
 20
1220.371320
 11
56.101398
 21
1204.758582
  0
LINE
  8
MountainLine
  6
CONTINUOUS
 62
5
 10
56.101398
 20
1204.758582
 11
21.399049
 21
1137.630161
  0
LINE
  8
ValleyLine
  6
CONTINUOUS
 62
1
 10
21.399049
 20
1137.630161
 11
97.494314
 21
1220.371320
  0
LINE
  8
MountainLine
  6
CONTINUOUS
 62
5
 10
168.623854
 20
1153.224449
 11
21.399049
 21
1137.630161
  0
LINE
  8
CutLine
  6
CONTINUOUS
 62
8
 10
21.399049
 20
1137.630161
 11
67.839183
 21
1095.199260
  0
LINE
  8
CutLine
  6
CONTINUOUS
 62
8
 10
67.839183
 20
1095.199260
 11
168.623854
 21
1153.224449
  0
LINE
  8
MountainLine
  6
CONTINUOUS
 62
5
 10
168.623854
 20
1153.224449
 11
97.494314
 21
1220.371320
  0
LINE
  8
MountainLine
  6
CONTINUOUS
 62
5
 10
340.329530
 20
1250.633709
 11
233.158661
 21
1259.480390
  0
LINE
  8
MountainLine
  6
CONTINUOUS
 62
5
 10
233.158661
 20
1259.480390
 11
282.064249
 21
1170.913113
  0
LINE
  8
MountainLine
  6
CONTINUOUS
 62
5
 10
282.064249
 20
1170.913113
 11
340.329530
 21
1250.633709
  0
LINE
  8
MountainLine
  6
CONTINUOUS
 62
5
 10
233.158661
 20
1259.480390
 11
97.494314
 21
1220.371320
  0
LINE
  8
MountainLine
  6
CONTINUOUS
 62
5
 10
168.623854
 20
1153.224449
 11
233.158661
 21
1259.480390
  0
LINE
  8
MountainLine
  6
CONTINUOUS
 62
5
 10
401.949166
 20
1136.396863
 11
340.329530
 21
1250.633709
  0
LINE
  8
CutLine
  6
CONTINUOUS
 62
8
 10
282.064249
 20
1170.913113
 11
401.949166
 21
1136.396863
  0
LINE
  8
MountainLine
  6
CONTINUOUS
 62
5
 10
495.742588
 20
1189.141656
 11
340.329530
 21
1250.633709
  0
LINE
  8
MountainLine
  6
CONTINUOUS
 62
5
 10
413.054266
 20
1072.874735
 11
378.900385
 21
1047.687292
  0
LINE
  8
CutLine
  6
CONTINUOUS
 62
8
 10
378.900385
 20
1047.687292
 11
451.373293
 21
977.466512
  0
ENDSEC
  0
EOF
